<svg width="24" height="24" viewBox="0 0 24 24" fill="none" xmlns="http://www.w3.org/2000/svg">
<g id="Icon">
<path id="Screen Shot 2022-10-05 at 11.35 1 (Traced)" fill-rule="evenodd" clip-rule="evenodd" d="M11.7588 2.00229C11.7452 2.00562 11.6784 2.01729 11.6103 2.02823C11.447 2.05446 11.1377 2.14845 10.99 2.21668C10.5272 2.43051 10.1735 2.87717 10.0677 3.38118C10.0146 3.6345 10.0173 3.74642 10.0932 4.43746C10.1713 5.14875 10.2819 5.44081 10.5877 5.7434C10.7799 5.93363 11.0343 6.05382 11.3537 6.10536C11.5075 6.13015 11.7915 6.11732 11.9404 6.07885C12.0962 6.03857 12.3093 5.93485 12.443 5.83424C12.5782 5.73249 12.8031 5.48054 12.9385 5.27918C13.1387 4.98136 13.3149 4.5502 13.3937 4.16514C13.4288 3.99334 13.4302 3.95913 13.42 3.52837C13.4112 3.15332 13.4036 3.0506 13.3766 2.94507C13.2893 2.60407 13.0671 2.34621 12.7078 2.16898C12.4659 2.04969 12.3068 2.01158 12.0146 2.00301C11.8875 1.9993 11.7724 1.99897 11.7588 2.00229ZM10.7768 6.69199C10.5096 6.72927 10.2555 6.78504 9.94333 6.87486C9.45616 7.01503 8.83533 7.20602 8.55696 7.30136C7.69636 7.59615 6.77084 8.04154 6.29106 8.39179C6.18824 8.46687 6.09608 8.55928 5.92754 8.75627C4.86872 9.99395 4.1614 11.1076 4.02635 11.7497C3.92726 12.2208 4.11433 12.5425 4.4754 12.5221C4.83813 12.5015 5.30458 12.0842 6.1973 10.9814C6.92485 10.0827 7.12232 9.85012 7.3604 9.61142C7.50362 9.46781 7.72359 9.29457 7.83851 9.23485C7.92585 9.18948 7.95422 9.18316 8.07009 9.18323C8.43315 9.18344 8.61902 9.44566 8.68354 10.0487C8.74143 10.5899 8.65668 11.2153 8.47411 11.5942L8.4095 11.7282L8.20678 11.8397C7.75206 12.0897 7.36305 12.3815 6.99686 12.7473C6.71613 13.0276 6.54901 13.2269 6.3351 13.5362C6.13855 13.8205 6.01603 14.0596 5.88534 14.414C5.54043 15.3494 5.36512 16.2081 5.39667 16.8075C5.46162 18.0411 5.85162 19.0812 6.60339 20.0258C6.80303 20.2767 7.01461 20.491 7.34389 20.7759C7.65756 21.0473 7.82891 21.1784 8.04328 21.311C8.36766 21.5117 8.59776 21.6086 9.0791 21.7473C9.73072 21.935 10.1494 21.9995 10.719 22C11.1563 22.0003 11.3581 21.981 11.7918 21.8974C12.5438 21.7524 13.2905 21.4073 13.9771 20.8876C14.2146 20.7078 14.6453 20.2843 14.859 20.0205C15.2184 19.5768 15.5361 19.018 15.7284 18.4909C15.7788 18.353 15.9446 18.024 16.0471 17.8586C16.0893 17.7903 16.0939 17.7877 16.1546 17.7971C16.2944 17.8187 16.4509 17.9489 16.507 18.0903C16.6439 18.4356 16.9611 18.838 17.1823 18.9469C17.3015 19.0056 17.4786 19.0257 17.6164 18.9962C17.9129 18.9326 18.369 18.6632 18.8662 18.2581C19.7537 17.5348 20.1267 17.1134 20.1549 16.8016C20.1666 16.6726 20.1403 16.6016 20.0499 16.5183C19.9146 16.3935 19.7035 16.3206 19.4777 16.3206H19.3586L18.8555 16.5609C18.1108 16.9164 18.142 16.9039 18.0721 16.8747C17.9869 16.8391 17.9058 16.7437 17.8256 16.5847C17.7867 16.5075 17.3105 15.5086 16.7674 14.3648C15.7496 12.2212 15.6929 12.1112 15.5071 11.9174C15.3784 11.7831 15.1604 11.6583 14.79 11.5066C14.5418 11.4049 13.9549 11.212 13.5413 11.0962C12.9138 10.9204 12.2219 10.5721 11.9342 10.2873C11.7702 10.1249 11.7098 9.96921 11.7095 9.70767C11.7091 9.40118 11.7784 9.09285 11.9892 8.46354C12.1431 8.00405 12.1714 7.86982 12.1714 7.5997C12.1714 7.10153 11.989 6.84723 11.5466 6.72846C11.4462 6.7015 11.3599 6.69362 11.1234 6.68983C10.96 6.68722 10.804 6.68818 10.7768 6.69199ZM11.437 12.3334C12.5371 12.5093 13.4848 13.062 14.1894 13.9386C14.7006 14.5746 15.0431 15.4231 15.1268 16.2607C15.1554 16.547 15.1384 17.1309 15.0939 17.3934C15.0161 17.8512 14.8785 18.2778 14.679 18.6795C13.9114 20.225 12.3291 21.1705 10.6283 21.1C9.96112 21.0724 9.41133 20.928 8.81278 20.6234C8.31296 20.3689 7.79156 19.9424 7.41882 19.4829C6.89288 18.8347 6.54703 17.9834 6.46 17.1228C6.43485 16.8741 6.4485 16.2923 6.48502 16.0565C6.67462 14.833 7.30673 13.7979 8.30115 13.0827C8.83386 12.6995 9.51927 12.4241 10.1582 12.3363C10.2624 12.322 10.37 12.3072 10.3972 12.3034C10.5205 12.2864 11.2798 12.3082 11.437 12.3334Z" fill="white"/>
</g>
</svg>
