<svg width="32" height="33" viewBox="0 0 32 33" fill="none" xmlns="http://www.w3.org/2000/svg">
<path d="M16 1.78003C7.87795 1.78003 1.28 8.37798 1.28 16.5C1.28 24.6221 7.87795 31.22 16 31.22C24.122 31.22 30.72 24.6221 30.72 16.5C30.72 8.37798 24.122 1.78003 16 1.78003ZM16 3.06003C23.4303 3.06003 29.44 9.06974 29.44 16.5C29.44 23.9303 23.4303 29.94 16 29.94C8.56971 29.94 2.56 23.9303 2.56 16.5C2.56 9.06974 8.56971 3.06003 16 3.06003ZM23.705 7.53378C23.612 7.5311 23.5195 7.54872 23.4341 7.58542C23.3486 7.62212 23.2721 7.67701 23.21 7.74628L16.7575 14.7363C16.5182 14.6334 16.2605 14.5802 16 14.58C15.4908 14.58 15.0024 14.7823 14.6424 15.1424C14.2823 15.5025 14.08 15.9908 14.08 16.5C14.08 17.0092 14.2823 17.4976 14.6424 17.8577C15.0024 18.2177 15.4908 18.42 16 18.42C16.1072 18.4202 16.2143 18.4114 16.32 18.3938L18.64 22.5713C18.6809 22.6448 18.7358 22.7096 18.8017 22.7619C18.8676 22.8142 18.9432 22.8531 19.0241 22.8762C19.105 22.8993 19.1897 22.9062 19.2733 22.8966C19.3569 22.887 19.4377 22.861 19.5113 22.8201C19.5848 22.7792 19.6496 22.7243 19.7019 22.6584C19.7542 22.5924 19.793 22.5169 19.8161 22.436C19.8392 22.355 19.8461 22.2704 19.8365 22.1868C19.8269 22.1032 19.8009 22.0223 19.76 21.9488L17.4375 17.77C17.7477 17.4196 17.9193 16.968 17.92 16.5C17.9199 16.1876 17.8435 15.88 17.6975 15.6038L24.15 8.61378C24.2349 8.52416 24.2921 8.4119 24.3147 8.29053C24.3372 8.16916 24.3242 8.04384 24.2772 7.9297C24.2301 7.81556 24.1511 7.71745 24.0496 7.6472C23.9481 7.57695 23.8284 7.53756 23.705 7.53378Z" fill="#FC0005"/>
</svg>
