<svg width="20" height="20" viewBox="0 0 20 20" fill="none" xmlns="http://www.w3.org/2000/svg">
<path d="M1.2186 16.6278H2.92132C2.94729 16.723 3.00294 16.8129 3.08826 16.8975C3.17729 16.9786 3.29229 17.0456 3.43325 17.0985C3.57422 17.1479 3.73188 17.1725 3.90623 17.1725C4.1622 17.1725 4.38292 17.1161 4.5684 17.0033C4.75388 16.8905 4.90598 16.7336 5.02468 16.5326C5.14339 16.3281 5.22871 16.0919 5.28065 15.8239C5.33629 15.556 5.35855 15.2668 5.34742 14.9566H5.2417C5.18234 15.1152 5.07662 15.2668 4.92452 15.4114C4.77243 15.5524 4.57767 15.667 4.34026 15.7552C4.10655 15.8398 3.83018 15.8821 3.51116 15.8821C3.08826 15.8821 2.68947 15.7957 2.3148 15.6229C1.94013 15.4502 1.63408 15.1893 1.39667 14.8402C1.16296 14.4912 1.04611 14.0575 1.04611 13.5392C1.04611 13.0138 1.17223 12.5643 1.42449 12.1906C1.68045 11.8133 2.0273 11.5242 2.46504 11.3232C2.90649 11.1187 3.40914 11.0165 3.973 11.0165C4.3959 11.0165 4.79469 11.0817 5.16936 11.2122C5.54403 11.3391 5.87234 11.5471 6.15427 11.8362C6.4362 12.1218 6.65692 12.4991 6.81644 12.968C6.97966 13.4334 7.06127 14.0046 7.06127 14.6816C7.06127 15.5101 6.93885 16.2082 6.69402 16.7759C6.45289 17.34 6.09677 17.7684 5.62565 18.061C5.15823 18.3502 4.57767 18.4947 3.88397 18.4947C3.44253 18.4947 3.05673 18.4401 2.72657 18.3308C2.40012 18.2179 2.12746 18.0716 1.90859 17.8918C1.69344 17.7085 1.52836 17.5075 1.41336 17.2889C1.29836 17.0668 1.23344 16.8464 1.2186 16.6278ZM5.10259 13.4916C5.10259 13.2483 5.05251 13.0403 4.95235 12.8675C4.8559 12.6912 4.72049 12.5555 4.54614 12.4603C4.37179 12.3651 4.16961 12.3175 3.93962 12.3175C3.72075 12.3175 3.52414 12.3651 3.34979 12.4603C3.17543 12.552 3.03818 12.6859 2.93802 12.8622C2.83786 13.0385 2.78778 13.2465 2.78778 13.4863C2.78778 13.7296 2.83786 13.9376 2.93802 14.1104C3.04189 14.2831 3.181 14.4154 3.35535 14.507C3.5297 14.5987 3.72817 14.6445 3.95075 14.6445C4.16591 14.6445 4.36066 14.5987 4.53501 14.507C4.70937 14.4154 4.84662 14.2849 4.94678 14.1157C5.05065 13.9429 5.10259 13.7349 5.10259 13.4916Z" fill="#575757"/>
<path d="M10.1718 14.5811V14.9248C10.1718 15.3832 10.2182 15.7763 10.3109 16.1042C10.4074 16.4286 10.5428 16.6789 10.7171 16.8552C10.8952 17.028 11.1048 17.1144 11.3459 17.1144C11.5944 17.1144 11.8059 17.028 11.9802 16.8552C12.1583 16.6789 12.2937 16.4286 12.3864 16.1042C12.4792 15.7763 12.5256 15.3832 12.5256 14.9248V14.5811C12.5256 14.1262 12.4792 13.7366 12.3864 13.4123C12.2937 13.0844 12.1583 12.8358 11.9802 12.6665C11.8059 12.4938 11.5944 12.4074 11.3459 12.4074C11.1011 12.4074 10.8896 12.4938 10.7115 12.6665C10.5372 12.8358 10.4037 13.0826 10.3109 13.407C10.2182 13.7313 10.1718 14.1227 10.1718 14.5811ZM8.34109 14.9301V14.5758C8.34109 13.86 8.46351 13.236 8.70835 12.7036C8.95318 12.1676 9.30189 11.7534 9.75446 11.4607C10.207 11.1681 10.7449 11.0218 11.3682 11.0218C11.9951 11.0218 12.5311 11.1663 12.9763 11.4554C13.4214 11.7446 13.7627 12.1553 14.0001 12.6877C14.2376 13.2201 14.3563 13.8495 14.3563 14.5758V14.9301C14.3563 15.4696 14.2858 15.9579 14.1448 16.3951C14.0038 16.8323 13.8017 17.2078 13.5383 17.5216C13.2749 17.8354 12.9577 18.0769 12.5868 18.2461C12.2158 18.4154 11.7966 18.5 11.3292 18.5C10.7097 18.5 10.1774 18.3537 9.73221 18.061C9.28705 17.7684 8.94391 17.3559 8.70278 16.8235C8.46166 16.2876 8.34109 15.6564 8.34109 14.9301Z" fill="#575757"/>
<path d="M19.2752 18.3678H17.4668V12.7459H17.3778C17.1886 12.8693 16.9994 12.9945 16.8102 13.1214C16.621 13.2483 16.4318 13.3752 16.2426 13.5022C16.0534 13.6291 15.8642 13.756 15.675 13.883V12.3492C15.9718 12.1483 16.2704 11.949 16.5709 11.7516C16.8714 11.5506 17.17 11.3497 17.4668 11.1487H19.2752V18.3678Z" fill="#575757"/>
<path d="M10.5001 1.50023C11.6967 1.49522 12.8354 1.57288 13.9161 1.73321C15.002 1.88853 15.9746 2.12903 16.8339 2.4547C17.6932 2.78037 18.3916 3.19874 18.9293 3.7098C19.2878 4.0505 19.5593 4.43129 19.7438 4.85216C19.9336 5.27303 20.0179 5.73899 19.9968 6.25005C19.9705 6.85129 19.7675 7.32978 19.388 7.68552C19.2193 7.84585 19.0242 7.9661 18.8028 8.04626C18.5814 8.12643 18.3389 8.14647 18.0753 8.10639L15.284 7.66297C15.0521 7.62289 14.857 7.57028 14.6989 7.50514C14.5408 7.435 14.4116 7.35233 14.3114 7.25713C14.1796 7.13187 14.0874 6.97906 14.0347 6.79868C13.982 6.61831 13.9556 6.41038 13.9556 6.17489V5.41582C13.9556 5.3056 13.9161 5.2129 13.837 5.13775C13.7895 5.09266 13.7395 5.06009 13.6868 5.04005C13.634 5.01499 13.584 4.99746 13.5365 4.98744C13.2624 4.91228 12.8618 4.85717 12.3346 4.8221C11.8074 4.78201 11.1959 4.76197 10.5001 4.76197C9.80423 4.76197 9.19273 4.78702 8.66557 4.83713C8.13841 4.88222 7.73777 4.92982 7.46365 4.97992C7.41621 4.98994 7.36349 5.00748 7.3055 5.03253C7.25279 5.05758 7.20271 5.09266 7.15526 5.13775C7.07619 5.21791 7.03665 5.31061 7.03665 5.41582V6.17489C7.03665 6.41038 7.0103 6.61831 6.95758 6.79868C6.91014 6.97906 6.82052 7.13187 6.68873 7.25713C6.48314 7.45253 6.1563 7.58781 5.70822 7.66297L2.90901 8.10639C2.64543 8.14647 2.40293 8.12893 2.18153 8.05378C1.96539 7.97361 1.77562 7.85837 1.6122 7.70806C1.42769 7.5327 1.28272 7.32227 1.17729 7.07676C1.07713 6.82624 1.01914 6.55317 1.00333 6.25756C0.982243 5.74651 1.06132 5.28054 1.24055 4.85967C1.41978 4.4388 1.68863 4.05551 2.0471 3.7098C2.5848 3.19874 3.28592 2.78037 4.15046 2.4547C5.015 2.12903 5.99025 1.88853 7.07619 1.73321C8.16214 1.57789 9.30343 1.50023 10.5001 1.50023Z" fill="#575757"/>
</svg>
