<svg width="32" height="33" viewBox="0 0 32 33" fill="none" xmlns="http://www.w3.org/2000/svg">
<path d="M14.2112 1.78003C14.0594 1.78016 13.9125 1.83429 13.7968 1.93276C13.6812 2.03123 13.6043 2.16761 13.58 2.31753L13.0687 5.44878C12.0733 5.71322 11.1361 6.10534 10.2675 6.61003L7.6775 4.75878C7.55412 4.67068 7.40347 4.62923 7.25239 4.64182C7.1013 4.65441 6.9596 4.72022 6.8525 4.82753L4.36375 7.31628C4.25747 7.42253 4.19197 7.56279 4.17871 7.71248C4.16546 7.86217 4.20529 8.01176 4.29125 8.13503L6.12 10.7475C5.61123 11.6193 5.21631 12.5607 4.95 13.56L1.815 14.0825C1.66554 14.1074 1.52974 14.1845 1.43178 14.3001C1.33381 14.4157 1.28003 14.5623 1.28 14.7138V18.2338C1.28007 18.3842 1.3331 18.5297 1.42979 18.6449C1.52648 18.7601 1.66064 18.8376 1.80875 18.8638L4.945 19.42C5.20939 20.4192 5.60186 21.3603 6.10875 22.2325L4.2575 24.82C4.1694 24.9434 4.12795 25.0941 4.14054 25.2451C4.15313 25.3962 4.21894 25.5379 4.32625 25.645L6.815 28.1338C6.92125 28.2401 7.06151 28.3056 7.2112 28.3188C7.36089 28.3321 7.51048 28.2922 7.63375 28.2063L10.2462 26.3788C11.1179 26.8887 12.0586 27.2832 13.0575 27.5488L13.5812 30.6863C13.6061 30.8357 13.6832 30.9715 13.7988 31.0695C13.9144 31.1675 14.061 31.2212 14.2125 31.2213H17.7325C17.8829 31.2212 18.0285 31.1682 18.1437 31.0715C18.2589 30.9748 18.3363 30.8406 18.3625 30.6925L18.9188 27.5563C19.9286 27.2895 20.8788 26.8911 21.7588 26.3763L24.3663 28.205C24.4895 28.2915 24.6393 28.3317 24.7892 28.3187C24.9392 28.3057 25.0798 28.2402 25.1863 28.1338L27.675 25.645C27.7823 25.5375 27.8478 25.3954 27.8599 25.2441C27.8721 25.0927 27.83 24.942 27.7413 24.8188L25.8875 22.2425C26.3984 21.3664 26.795 20.4196 27.06 19.4138L30.1913 18.8638C30.3394 18.8376 30.4735 18.7601 30.5702 18.6449C30.6669 18.5297 30.7199 18.3842 30.72 18.2338V14.7138C30.7199 14.5621 30.666 14.4153 30.5677 14.2997C30.4695 14.1841 30.3334 14.1071 30.1838 14.0825L27.0525 13.57C26.7857 12.5653 26.3885 11.6192 25.8763 10.7438L27.705 8.13878C27.7914 8.01554 27.8317 7.86578 27.8187 7.71581C27.8056 7.56584 27.7402 7.42526 27.6338 7.31878L25.145 4.83003C25.0377 4.72259 24.8956 4.65681 24.7443 4.64444C24.5929 4.63208 24.4421 4.67393 24.3188 4.76253L21.7413 6.61503C20.8644 6.10373 19.9173 5.70798 18.9112 5.44253L18.3625 2.31003C18.3366 2.16148 18.259 2.02686 18.1435 1.9299C18.0281 1.83294 17.882 1.77986 17.7313 1.78003H14.2112ZM14.7562 3.06003H17.1938L17.7175 6.04253C17.7392 6.16735 17.7975 6.28292 17.8849 6.3746C17.9724 6.46628 18.0851 6.52995 18.2087 6.55753C19.3788 6.81681 20.47 7.27871 21.4525 7.90378C21.5605 7.97236 21.6866 8.00699 21.8145 8.0032C21.9424 7.99941 22.0662 7.95738 22.17 7.88253L24.625 6.11878L26.3488 7.84378L24.6063 10.325C24.5334 10.4289 24.4931 10.5521 24.4904 10.679C24.4877 10.8059 24.5228 10.9307 24.5913 11.0375C25.2167 12.0179 25.6795 13.1099 25.94 14.2788C25.9678 14.4035 26.0323 14.5171 26.1252 14.6049C26.2181 14.6927 26.3351 14.7506 26.4613 14.7713L29.44 15.2575V17.6963L26.4575 18.22C26.3329 18.242 26.2176 18.3003 26.1262 18.3878C26.0347 18.4752 25.9712 18.5878 25.9438 18.7113C25.6851 19.8805 25.2231 20.9727 24.5988 21.9538C24.53 22.0617 24.4951 22.1877 24.4987 22.3156C24.5023 22.4435 24.5441 22.5674 24.6187 22.6713L26.385 25.125L24.6613 26.8488L22.1763 25.1063C22.0725 25.0337 21.9495 24.9935 21.8229 24.9909C21.6963 24.9882 21.5717 25.0231 21.465 25.0913C20.4815 25.7186 19.3898 26.1807 18.2175 26.4413C18.0942 26.4687 17.9817 26.532 17.8943 26.6232C17.8069 26.7144 17.7484 26.8294 17.7262 26.9538L17.1962 29.9413H14.755L14.2575 26.955C14.2364 26.8294 14.1782 26.7129 14.0905 26.6204C14.0027 26.528 13.8894 26.4639 13.765 26.4363C12.6013 26.1763 11.5171 25.7172 10.54 25.0938C10.4333 25.0256 10.3087 24.9907 10.1821 24.9934C10.0555 24.996 9.93252 25.0362 9.82875 25.1088L7.34 26.8488L5.615 25.1238L7.37625 22.66C7.45057 22.5565 7.49229 22.4332 7.49608 22.3058C7.49986 22.1784 7.46554 22.0528 7.3975 21.945C6.77701 20.9657 6.31742 19.8816 6.05875 18.7188C6.03134 18.5955 5.96805 18.483 5.87685 18.3956C5.78565 18.3082 5.67062 18.2497 5.54625 18.2275L2.56 17.6975V15.2563L5.54375 14.76C5.66942 14.7389 5.78592 14.6807 5.87834 14.593C5.97076 14.5053 6.03488 14.3919 6.0625 14.2675C6.323 13.104 6.78405 12.0185 7.40625 11.04C7.47394 10.9333 7.50852 10.8089 7.50563 10.6826C7.50274 10.5562 7.4625 10.4335 7.39 10.33L5.64875 7.84128L7.375 6.11503L9.84125 7.87753C9.94477 7.95139 10.068 7.99274 10.1951 7.9963C10.3222 7.99987 10.4475 7.96548 10.555 7.89753C11.5318 7.27887 12.6167 6.81991 13.7775 6.56128C13.9023 6.5335 14.0158 6.469 14.1036 6.3761C14.1914 6.2832 14.2493 6.16615 14.27 6.04003L14.7562 3.06003ZM16 8.82003C11.766 8.82003 8.32 12.2666 8.32 16.4988C8.32 20.7321 11.766 24.18 16 24.18C20.234 24.18 23.68 20.7321 23.68 16.4988C23.68 12.2666 20.234 8.82003 16 8.82003ZM16 10.1C19.542 10.1 22.4 12.9588 22.4 16.4988C22.4 20.0402 19.542 22.9 16 22.9C12.458 22.9 9.6 20.0402 9.6 16.4988C9.6 12.9588 12.458 10.1 16 10.1ZM16 12.66C13.8868 12.66 12.16 14.3868 12.16 16.5C12.16 18.6132 13.8868 20.34 16 20.34C18.1132 20.34 19.84 18.6132 19.84 16.5C19.84 14.3868 18.1132 12.66 16 12.66ZM16 13.94C17.4214 13.94 18.56 15.0786 18.56 16.5C18.56 17.9215 17.4214 19.06 16 19.06C14.5786 19.06 13.44 17.9215 13.44 16.5C13.44 15.0786 14.5786 13.94 16 13.94Z" fill="#FC0005"/>
</svg>
