<svg width="20" height="20" viewBox="0 0 20 20" fill="none" xmlns="http://www.w3.org/2000/svg">
<g id="Icon">
<path id="location_on" d="M9.99998 10.0416C10.4722 10.0416 10.875 9.87496 11.2083 9.54163C11.5416 9.20829 11.7083 8.80551 11.7083 8.33329C11.7083 7.86107 11.5416 7.45829 11.2083 7.12496C10.875 6.79163 10.4722 6.62496 9.99998 6.62496C9.52776 6.62496 9.12498 6.79163 8.79165 7.12496C8.45831 7.45829 8.29165 7.86107 8.29165 8.33329C8.29165 8.80551 8.45831 9.20829 8.79165 9.54163C9.12498 9.87496 9.52776 10.0416 9.99998 10.0416ZM9.99998 18.4791C7.7222 16.5486 6.02081 14.7533 4.89581 13.0933C3.77081 11.4338 3.20831 9.90274 3.20831 8.49996C3.20831 6.37496 3.8922 4.68385 5.25998 3.42663C6.62831 2.16996 8.20831 1.54163 9.99998 1.54163C11.7916 1.54163 13.3716 2.16996 14.74 3.42663C16.1078 4.68385 16.7916 6.37496 16.7916 8.49996C16.7916 9.90274 16.2291 11.4338 15.1041 13.0933C13.9791 14.7533 12.2778 16.5486 9.99998 18.4791Z" fill="#575757"/>
<path id="location_on_2" d="M9.99998 10.0416C10.4722 10.0416 10.875 9.87496 11.2083 9.54163C11.5416 9.20829 11.7083 8.80551 11.7083 8.33329C11.7083 7.86107 11.5416 7.45829 11.2083 7.12496C10.875 6.79163 10.4722 6.62496 9.99998 6.62496C9.52776 6.62496 9.12498 6.79163 8.79165 7.12496C8.45831 7.45829 8.29165 7.86107 8.29165 8.33329C8.29165 8.80551 8.45831 9.20829 8.79165 9.54163C9.12498 9.87496 9.52776 10.0416 9.99998 10.0416ZM9.99998 18.4791C7.7222 16.5486 6.02081 14.7533 4.89581 13.0933C3.77081 11.4338 3.20831 9.90274 3.20831 8.49996C3.20831 6.37496 3.8922 4.68385 5.25998 3.42663C6.62831 2.16996 8.20831 1.54163 9.99998 1.54163C11.7916 1.54163 13.3716 2.16996 14.74 3.42663C16.1078 4.68385 16.7916 6.37496 16.7916 8.49996C16.7916 9.90274 16.2291 11.4338 15.1041 13.0933C13.9791 14.7533 12.2778 16.5486 9.99998 18.4791Z" fill="#575757"/>
<path id="location_on_3" d="M9.99998 10.0416C10.4722 10.0416 10.875 9.87496 11.2083 9.54163C11.5416 9.20829 11.7083 8.80551 11.7083 8.33329C11.7083 7.86107 11.5416 7.45829 11.2083 7.12496C10.875 6.79163 10.4722 6.62496 9.99998 6.62496C9.52776 6.62496 9.12498 6.79163 8.79165 7.12496C8.45831 7.45829 8.29165 7.86107 8.29165 8.33329C8.29165 8.80551 8.45831 9.20829 8.79165 9.54163C9.12498 9.87496 9.52776 10.0416 9.99998 10.0416ZM9.99998 18.4791C7.7222 16.5486 6.02081 14.7533 4.89581 13.0933C3.77081 11.4338 3.20831 9.90274 3.20831 8.49996C3.20831 6.37496 3.8922 4.68385 5.25998 3.42663C6.62831 2.16996 8.20831 1.54163 9.99998 1.54163C11.7916 1.54163 13.3716 2.16996 14.74 3.42663C16.1078 4.68385 16.7916 6.37496 16.7916 8.49996C16.7916 9.90274 16.2291 11.4338 15.1041 13.0933C13.9791 14.7533 12.2778 16.5486 9.99998 18.4791Z" fill="#575757"/>
<path id="location_on_4" d="M9.99998 10.0416C10.4722 10.0416 10.875 9.87496 11.2083 9.54163C11.5416 9.20829 11.7083 8.80551 11.7083 8.33329C11.7083 7.86107 11.5416 7.45829 11.2083 7.12496C10.875 6.79163 10.4722 6.62496 9.99998 6.62496C9.52776 6.62496 9.12498 6.79163 8.79165 7.12496C8.45831 7.45829 8.29165 7.86107 8.29165 8.33329C8.29165 8.80551 8.45831 9.20829 8.79165 9.54163C9.12498 9.87496 9.52776 10.0416 9.99998 10.0416ZM9.99998 18.4791C7.7222 16.5486 6.02081 14.7533 4.89581 13.0933C3.77081 11.4338 3.20831 9.90274 3.20831 8.49996C3.20831 6.37496 3.8922 4.68385 5.25998 3.42663C6.62831 2.16996 8.20831 1.54163 9.99998 1.54163C11.7916 1.54163 13.3716 2.16996 14.74 3.42663C16.1078 4.68385 16.7916 6.37496 16.7916 8.49996C16.7916 9.90274 16.2291 11.4338 15.1041 13.0933C13.9791 14.7533 12.2778 16.5486 9.99998 18.4791Z" fill="#575757"/>
</g>
</svg>
