<svg width="20" height="20" viewBox="0 0 20 20" fill="none" xmlns="http://www.w3.org/2000/svg">
<path d="M4.16667 17.5C3.70833 17.5 3.31583 17.3369 2.98917 17.0108C2.66306 16.6842 2.5 16.2917 2.5 15.8333V4.16667C2.5 3.70833 2.66306 3.31583 2.98917 2.98917C3.31583 2.66306 3.70833 2.5 4.16667 2.5H13.3333L17.5 6.66667V15.8333C17.5 16.2917 17.3369 16.6842 17.0108 17.0108C16.6842 17.3369 16.2917 17.5 15.8333 17.5H4.16667ZM5.83333 14.1667H14.1667V12.5H5.83333V14.1667ZM5.83333 10.8333H14.1667V9.16667H5.83333V10.8333ZM12.5 7.5H15.8333L12.5 4.16667V7.5ZM5.83333 7.5H10V5.83333H5.83333V7.5Z" fill="#575757"/>
</svg>
