<svg width="39" height="20" viewBox="0 0 39 20" fill="none" xmlns="http://www.w3.org/2000/svg">
<g id="SPS" clip-path="url(#clip0_0_1314)">
<path id="Vector" d="M22.0403 5.53749C22.0403 6.44362 21.9093 7.16642 21.6475 7.71114C21.3856 8.25586 21.0451 8.67488 20.6313 8.96819C20.2176 9.2615 19.7619 9.4553 19.2591 9.54958C18.7615 9.64386 18.2744 9.691 17.803 9.691C17.803 8.37109 17.803 7.06167 17.8187 5.75224C17.8292 4.44281 17.8449 3.11243 17.8606 1.75587C17.9339 1.74015 18.023 1.72968 18.1172 1.72968H19.0496C19.4424 1.72968 19.8247 1.79777 20.1914 1.92871C20.558 2.05965 20.8775 2.2744 21.1499 2.56247C21.4222 2.85579 21.637 3.24338 21.7994 3.73572C21.9565 4.22283 22.0403 4.82516 22.0403 5.54273M26.5028 5.09229C26.5028 4.24378 26.3614 3.52097 26.0786 2.91864C25.7957 2.3163 25.3558 1.77158 24.7534 1.27923C24.3187 0.902119 23.7268 0.614045 22.9726 0.42025C22.2236 0.221217 21.1865 0.126938 19.8614 0.121701H13.4033C13.4766 1.34732 13.5342 2.56247 13.5709 3.77762C13.6076 4.99277 13.6285 6.38076 13.6285 7.9416V11.7808C13.6285 13.3417 13.6076 14.7297 13.5709 15.9448C13.5342 17.16 13.4766 18.3489 13.4033 19.5169C13.7228 19.4803 14.0737 19.4593 14.4456 19.4593H16.9859C17.363 19.4593 17.7087 19.4803 18.0282 19.5169C17.9339 18.1447 17.8711 16.7567 17.8449 15.353C17.8187 13.9493 17.803 12.5455 17.803 11.1314H19.2434C20.2961 11.1314 21.2651 11.0214 22.1503 10.7909C23.0355 10.5657 23.8002 10.2148 24.4496 9.7329C25.0991 9.25103 25.6019 8.62774 25.9633 7.8578C26.3195 7.08785 26.4976 6.16078 26.4976 5.09229M38.9948 11.4718C38.9214 11.2885 38.8324 11.1157 38.7329 10.9533C38.3086 10.2671 37.7744 9.68052 37.1354 9.20389C36.4964 8.72202 35.8102 8.31872 35.0717 7.98874C34.3384 7.65877 33.6523 7.31831 33.0081 6.95691C32.3691 6.60075 31.8348 6.19744 31.4106 5.75748C30.9863 5.31751 30.7768 4.7466 30.7768 4.04998C30.7768 3.35337 31.0492 2.77722 31.5939 2.26916C32.1386 1.7611 32.8457 1.50446 33.7099 1.50446C35.386 1.50446 36.5226 2.3163 37.1249 3.93475H37.5492C37.7377 3.31147 37.8896 2.79817 38.0153 2.39487C38.1358 1.99156 38.2824 1.57255 38.4553 1.13782C37.9106 0.703086 37.2558 0.367873 36.4911 0.121701H31.4996C31.4682 0.132176 31.4367 0.137414 31.4053 0.147889C30.6406 0.409775 29.9702 0.797365 29.3836 1.30542C28.8022 1.81348 28.336 2.44724 27.9851 3.19624C27.6394 3.95047 27.4613 4.81469 27.4613 5.79414C27.4613 6.86787 27.6656 7.74781 28.0846 8.43395C28.4984 9.12009 29.0169 9.70147 29.6402 10.1729C30.2635 10.6443 30.9392 11.0423 31.6724 11.3723C32.4057 11.7023 33.0866 12.0427 33.7047 12.3884C34.328 12.7393 34.8413 13.1374 35.2603 13.5879C35.6741 14.0383 35.8836 14.6249 35.8836 15.3372C35.8836 16.1281 35.6164 16.8038 35.077 17.3695C34.5427 17.9352 33.7099 18.218 32.5786 18.218C32.0129 18.218 31.5048 18.1394 31.0544 17.9771C30.604 17.8199 30.2164 17.5947 29.8969 17.3119C29.5774 17.029 29.3155 16.7043 29.106 16.3377C28.8965 15.971 28.755 15.5782 28.6817 15.1644H28.1475C28.0532 15.8034 27.938 16.4005 27.807 16.9452C27.6761 17.4899 27.5137 18.0923 27.3251 18.7522C27.7389 19.0717 28.3465 19.3389 29.1479 19.5588C29.9492 19.7736 30.8554 19.8836 31.8715 19.8836C33.0028 19.8836 34.0242 19.7369 34.9355 19.4436C35.8469 19.1503 36.6326 18.726 37.2925 18.1709C37.9525 17.6157 38.4605 16.9452 38.8167 16.1648C38.8795 16.0339 38.9319 15.8977 38.979 15.7615V11.4561L38.9948 11.4718ZM4.88155 18.218C4.31587 18.218 3.80782 18.1394 3.35737 17.9771C2.90693 17.8199 2.51934 17.5947 2.19984 17.3119C1.88034 17.029 1.61845 16.7043 1.40894 16.3377C1.19944 15.971 1.05802 15.5782 0.98469 15.1644H0.445206C0.350927 15.8034 0.235697 16.4005 0.104754 16.9452C0.073328 17.0866 0.036664 17.2281 0 17.3747V18.9932C0.377115 19.2079 0.858985 19.3965 1.45085 19.5536C2.25222 19.7684 3.15834 19.8783 4.17446 19.8783C5.3058 19.8783 6.32716 19.7317 7.23852 19.4384C8.14988 19.1451 8.93554 18.7208 9.59549 18.1656C10.2554 17.6104 10.7635 16.94 11.1197 16.1596C11.4758 15.3791 11.6539 14.5149 11.6539 13.5774C11.6539 12.5036 11.4444 11.6237 11.0201 10.9376C10.5959 10.2514 10.0616 9.66481 9.42264 9.18818C8.78364 8.70631 8.0975 8.303 7.36422 7.97303C6.63094 7.64305 5.93957 7.3026 5.30056 6.9412C4.66156 6.58503 4.12732 6.18173 3.70306 5.74176C3.27881 5.3018 3.0693 4.73089 3.0693 4.03427C3.0693 3.33765 3.34166 2.76151 3.88638 2.25345C4.4311 1.74539 5.1382 1.48874 6.00242 1.48874C7.67849 1.48874 8.81507 2.30059 9.41741 3.91904H9.84166C10.0302 3.29575 10.1873 2.78246 10.3078 2.37915C10.4283 1.97585 10.5749 1.55683 10.7478 1.1221C10.2031 0.687373 9.54835 0.35216 8.78364 0.105988H3.80258C3.77115 0.116463 3.73973 0.121701 3.7083 0.132176C2.94359 0.394062 2.27317 0.781652 1.68654 1.28971C1.10516 1.79777 0.639001 2.43153 0.288074 3.18052C0.172844 3.43193 0.073328 3.69906 0 3.98189V7.52782C0.0995165 7.85256 0.225222 8.15111 0.387591 8.42347C0.80137 9.10961 1.3199 9.691 1.94319 10.1624C2.56648 10.6338 3.24214 11.0318 3.97542 11.3618C4.7087 11.6918 5.38961 12.0323 6.00766 12.3779C6.63094 12.7289 7.14424 13.1269 7.55802 13.5774C7.9718 14.0278 8.18131 14.6144 8.18131 15.3268C8.18131 16.1177 7.91418 16.7933 7.3747 17.359C6.83521 17.9247 6.00766 18.2075 4.87631 18.2075" fill="#E30613"/>
</g>
<defs>
<clipPath id="clip0_0_1314">
<rect width="39" height="19.7671" fill="white" transform="translate(0 0.116455)"/>
</clipPath>
</defs>
</svg>
