<svg width="29" height="29" viewBox="0 0 29 29" fill="none" xmlns="http://www.w3.org/2000/svg">
<g id="icons8-zoom_in 1">
<path id="Vector" d="M12.18 1.73999C6.74024 1.73999 2.32001 6.16022 2.32001 11.6C2.32001 17.0398 6.74024 21.46 12.18 21.46C14.3324 21.46 16.3216 20.7667 17.9438 19.5931L25.5744 27.2056L27.2056 25.5744L19.6656 18.0162C21.1474 16.2898 22.04 14.0491 22.04 11.6C22.04 6.16022 17.6198 1.73999 12.18 1.73999ZM12.18 2.89999C16.9922 2.89999 20.88 6.7878 20.88 11.6C20.88 16.4122 16.9922 20.3 12.18 20.3C7.36782 20.3 3.48001 16.4122 3.48001 11.6C3.48001 6.7878 7.36782 2.89999 12.18 2.89999ZM11.6 6.95999V11.02H7.54001V12.18H11.6V16.24H12.76V12.18H16.82V11.02H12.76V6.95999H11.6Z" fill="#FCE6E7"/>
</g>
</svg>
