<svg width="144" height="60" viewBox="0 0 144 60" fill="none" xmlns="http://www.w3.org/2000/svg">
<path fill-rule="evenodd" clip-rule="evenodd" d="M101.476 8.12131C100.024 8.6156 98.859 9.76897 98.2949 11.2693L98.189 11.551L98.0159 11.1764C97.9207 10.9704 97.8112 10.7535 97.7725 10.6944L97.7021 10.5869L97.3779 10.7573C96.1136 11.4216 95.151 12.8137 94.8573 14.4025C94.8169 14.6209 94.7774 14.8061 94.7695 14.8141C94.7616 14.822 94.6579 14.6962 94.539 14.5347C94.4201 14.3731 94.271 14.1925 94.2077 14.1334L94.0925 14.0258L93.8635 14.215C93.1796 14.7801 92.5916 15.7134 92.3185 16.6672C92.176 17.1649 92.0794 18.046 92.121 18.4684C92.1383 18.6437 92.1342 18.7871 92.112 18.7871C92.0898 18.7871 91.9904 18.704 91.8913 18.6025C91.792 18.5009 91.6199 18.3525 91.5088 18.2726L91.3066 18.1275L91.1675 18.3042C90.7592 18.8228 90.4435 19.4653 90.2514 20.1686C90.1591 20.5064 90.1464 20.6641 90.1486 21.4489C90.1508 22.2492 90.1635 22.3902 90.2682 22.7798C90.3325 23.0194 90.381 23.2156 90.3758 23.2156C90.3706 23.2156 90.1576 23.107 89.9025 22.9743L89.4386 22.7332L89.287 23.0568C89.0026 23.6634 88.8892 24.1556 88.8609 24.9047C88.8445 25.3376 88.856 25.7021 88.8926 25.9176C88.9729 26.3895 89.2008 27.0949 89.4141 27.5322C89.5135 27.7361 89.5904 27.9074 89.5849 27.9128C89.5794 27.9183 89.4168 27.8735 89.2236 27.8133C89.0303 27.753 88.8049 27.6911 88.7225 27.6757L88.5727 27.6476L88.4954 27.9874C88.3257 28.7334 88.3534 29.6129 88.5724 30.4235C88.7098 30.932 89.124 31.7456 89.4984 32.2424L89.8218 32.6717L89.2881 32.6481L88.7544 32.6246V32.9033C88.7544 33.3107 88.8387 33.9298 88.9491 34.3337C89.0736 34.7894 89.4032 35.4889 89.6681 35.8601C89.9481 36.2525 90.4792 36.8156 90.8093 37.0703L91.0789 37.2781L90.8001 37.311C90.6467 37.329 90.4089 37.3679 90.2716 37.3973L90.0219 37.4508L90.054 37.6707C90.0996 37.9833 90.3249 38.6553 90.5015 39.0054C90.9818 39.9582 91.8142 40.7779 92.8446 41.3131C93.1411 41.4671 93.2154 41.524 93.1508 41.5474C92.6397 41.7327 92.384 41.8366 92.3205 41.8846C92.252 41.9363 92.2626 41.9804 92.4258 42.3254C93.0771 43.7025 94.2834 44.674 95.8638 45.0942L96.2593 45.1994L96.0287 45.3325C95.9019 45.4057 95.6973 45.5386 95.5741 45.6277L95.3503 45.7898L95.5458 46.0686C95.7869 46.4122 96.4129 47.0171 96.775 47.2562C97.5774 47.7859 98.4749 48.0784 99.4417 48.1249L99.9758 48.1507L99.5917 48.5367L99.2076 48.9228L99.4668 49.1597C100.594 50.1897 102.205 50.6231 103.869 50.3436C104.032 50.3161 104.175 50.3024 104.185 50.3131C104.196 50.3238 104.13 50.4375 104.038 50.5657C103.864 50.8086 103.69 51.1196 103.69 51.1884C103.69 51.2589 104.407 51.6128 104.844 51.7583C105.436 51.9552 105.94 52.0181 106.677 51.9869C107.631 51.9465 108.486 51.6818 109.335 51.1636C110.272 50.5918 110.796 50.4103 111.638 50.3656C112.524 50.3186 113.376 50.5275 114.079 50.9641C114.26 51.0768 114.563 51.252 114.753 51.3534C116.364 52.216 118.344 52.2155 119.817 51.3522L120.091 51.192L119.94 50.9248C119.858 50.7778 119.73 50.5803 119.655 50.4859C119.581 50.3915 119.52 50.3047 119.52 50.2929C119.52 50.2812 119.663 50.2983 119.838 50.3308C121.034 50.5533 122.175 50.4007 123.225 49.878C123.672 49.6552 124.458 49.0837 124.503 48.9483C124.514 48.9156 124.362 48.7279 124.165 48.5312C123.969 48.3345 123.808 48.1654 123.808 48.1554C123.808 48.1453 123.964 48.1371 124.155 48.1371C124.881 48.1371 125.859 47.8833 126.54 47.5185C127.204 47.163 127.736 46.6988 128.204 46.0673L128.394 45.8113L128.218 45.6594C128.121 45.5758 127.927 45.4472 127.786 45.3736C127.532 45.2411 127.466 45.1692 127.598 45.1692C127.718 45.1692 128.436 44.93 128.825 44.7602C129.851 44.3136 130.765 43.4524 131.267 42.4603C131.555 41.8897 131.559 41.9052 131.103 41.7333C130.887 41.652 130.668 41.568 130.616 41.5468C130.536 41.5139 130.567 41.4852 130.828 41.354C132.393 40.566 133.439 39.2077 133.719 37.5991C133.745 37.4506 133.743 37.4484 133.5 37.4004C133.365 37.3737 133.128 37.3352 132.974 37.315L132.694 37.2781L133.068 36.9657C133.877 36.2907 134.455 35.4458 134.755 34.4986C134.922 33.9736 134.974 33.6376 134.974 33.0935V32.6244L134.454 32.649C133.966 32.6721 133.937 32.6685 133.994 32.5923C134.028 32.5475 134.167 32.3646 134.303 32.1857C134.716 31.6418 135.111 30.8044 135.257 30.1586C135.412 29.4788 135.405 28.5364 135.24 27.9031C135.183 27.6813 135.171 27.6685 135.041 27.6839C134.965 27.693 134.744 27.751 134.55 27.8129C134.355 27.8748 134.185 27.9257 134.171 27.926C134.157 27.9263 134.233 27.7488 134.339 27.5314C134.748 26.6971 134.902 26.0172 134.898 25.0764C134.895 24.4668 134.878 24.3051 134.769 23.8991C134.7 23.6402 134.571 23.2743 134.481 23.0861L134.319 22.7439L134.14 22.8263C134.041 22.8717 133.837 22.9798 133.686 23.0665C133.536 23.1532 133.404 23.2164 133.395 23.2068C133.385 23.1972 133.419 23.0322 133.469 22.84C133.881 21.271 133.596 19.6847 132.675 18.4243C132.429 18.0875 132.467 18.0836 131.976 18.4979L131.641 18.7815L131.616 18.0188C131.597 17.4102 131.568 17.1639 131.473 16.8005C131.322 16.2249 131.097 15.7049 130.804 15.2536C130.552 14.8652 129.729 14.0103 129.637 14.041C129.606 14.0516 129.452 14.2317 129.297 14.4413C129.141 14.6509 129.003 14.824 128.989 14.8261C128.975 14.8281 128.937 14.6549 128.903 14.4412C128.793 13.7288 128.458 12.8902 128.038 12.2706C127.783 11.8961 127.296 11.3879 126.922 11.107C126.638 10.8939 126.124 10.5899 126.048 10.5899C126.031 10.5899 125.915 10.8028 125.79 11.0631L125.563 11.5363L125.413 11.1629C124.878 9.83633 123.894 8.79844 122.677 8.27833C122.145 8.05103 121.827 7.9723 121.776 8.05512C121.655 8.24823 121.532 8.99668 121.528 9.56517C121.525 9.89546 121.517 10.1658 121.51 10.1658C121.504 10.1658 121.376 10.0835 121.228 9.98275C120.678 9.61034 119.976 9.32033 119.261 9.17066C118.688 9.05057 117.599 9.10211 117.04 9.27576L116.892 9.3217L116.984 9.67795C117.318 10.9833 118.243 12.1436 119.498 12.8338L119.813 13.0065L119.386 13.2271C118.955 13.4498 118.387 13.8544 118.135 14.1174L117.999 14.2602L118.156 14.4391C118.767 15.1374 119.772 15.6863 120.89 15.9314C120.976 15.9503 121.08 16.065 121.254 16.3312C121.707 17.0271 122.528 17.7279 123.299 18.0776C123.599 18.2136 123.606 18.2214 123.712 18.5134C124.002 19.3139 124.535 20.0722 125.172 20.5896C125.653 20.9809 125.692 21.0274 125.692 21.2051C125.692 21.4779 125.912 22.2485 126.11 22.6706C126.315 23.109 126.693 23.6837 126.917 23.898L127.059 24.0341V24.6868C127.059 25.6401 127.198 26.2357 127.609 27.0398L127.818 27.4485L127.725 27.7518C127.495 28.4943 127.475 29.5514 127.675 30.3057C127.731 30.513 127.785 30.725 127.797 30.7768C127.809 30.8298 127.734 31.0402 127.626 31.2572C127.228 32.0506 127.09 32.6703 127.099 33.6201L127.105 34.2491L126.918 34.4621C126.327 35.1329 125.878 36.1574 125.758 37.1048C125.729 37.338 125.71 37.3679 125.486 37.534C125.186 37.7563 124.715 38.2366 124.45 38.5913C124.225 38.8919 123.908 39.5069 123.788 39.8769C123.711 40.112 123.697 40.1257 123.36 40.2855C123.169 40.3764 122.879 40.5405 122.715 40.6502C122.291 40.9343 121.605 41.6432 121.339 42.0716C121.202 42.2931 121.081 42.4367 121.033 42.4367C120.989 42.4367 120.827 42.469 120.673 42.5084C119.897 42.7065 119.127 43.1402 118.484 43.7409L118.13 44.0711L117.636 44.0995C115.658 44.2131 113.803 45.5698 113.09 47.4244C112.91 47.891 112.669 48.2022 112.386 48.3307C112.12 48.4515 111.647 48.4473 111.369 48.3216C110.994 48.1515 110.906 48.0344 110.636 47.3467C110.251 46.3695 109.267 45.2735 108.271 44.7136C107.629 44.353 106.625 44.0866 105.904 44.0856L105.598 44.0852L105.294 43.7785C104.705 43.1848 103.882 42.7156 103.065 42.5092L102.634 42.4001L102.395 42.0446C101.88 41.2761 101.282 40.7422 100.458 40.3163C100.06 40.1103 100.045 40.0964 99.9651 39.8628C99.7703 39.2897 99.3601 38.6043 98.9307 38.1345C98.7473 37.9339 98.2332 37.4891 98.045 37.3682C98.0369 37.363 98.01 37.2134 97.9851 37.0358C97.8663 36.1867 97.4615 35.242 96.9383 34.5926L96.6345 34.2155L96.6586 33.755C96.7033 32.8995 96.5228 32.0546 96.1255 31.2603C95.922 30.8534 95.9204 30.8464 95.9876 30.6562C96.2811 29.8243 96.2761 28.3497 95.9771 27.5605C95.9452 27.4762 95.9898 27.3458 96.1866 26.948C96.5587 26.1957 96.6811 25.6727 96.6916 24.7883L96.7001 24.0761L97.0164 23.6812C97.5415 23.0253 97.9752 22.0157 98.0622 21.2465C98.0939 20.9663 98.0962 20.9628 98.3879 20.7487C99.1044 20.2226 99.7162 19.3997 100.038 18.5294C100.142 18.2479 100.146 18.2435 100.545 18.0334C100.767 17.9168 101.072 17.7391 101.223 17.6386C101.597 17.3911 102.305 16.6578 102.535 16.2797L102.724 15.971L103.147 15.8666C104.007 15.6542 104.782 15.2299 105.426 14.6188L105.773 14.2899L105.457 13.9907C105.106 13.6579 104.621 13.3277 104.23 13.1547C104.088 13.0921 103.972 13.032 103.972 13.0212C103.972 13.0104 104.094 12.9329 104.243 12.8491C105.22 12.2995 105.97 11.5249 106.427 10.5917C106.637 10.1635 106.878 9.37635 106.817 9.31906C106.746 9.25329 106.135 9.13552 105.692 9.10254C104.667 9.02612 103.456 9.35962 102.535 9.97178L102.253 10.1598L102.223 9.49148C102.189 8.71491 102.036 7.99793 101.905 8C101.863 8.00066 101.67 8.05522 101.476 8.12131ZM101.368 9.75366C101.339 10.5252 101.275 10.8012 100.98 11.4253C100.553 12.3325 99.9438 13.0246 99.288 13.3488C99.0913 13.446 98.9151 13.5103 98.8965 13.4918C98.8184 13.4137 98.8257 12.4685 98.9068 12.1344C99.2076 10.8972 100.028 9.79167 101.075 9.21405C101.204 9.14253 101.329 9.08365 101.352 9.08317C101.375 9.0827 101.382 9.38134 101.368 9.75366ZM122.72 9.22945C123.632 9.73966 124.365 10.6708 124.755 11.8148C124.893 12.2193 124.908 12.3176 124.911 12.837C124.914 13.2274 124.897 13.4299 124.858 13.4686C124.813 13.5132 124.736 13.4936 124.505 13.3787C123.86 13.0594 123.293 12.4473 122.855 11.599C122.567 11.0418 122.397 10.4491 122.362 9.87897C122.335 9.44692 122.365 9.08233 122.428 9.08233C122.444 9.08233 122.576 9.14852 122.72 9.22945ZM105.763 10.0138C105.763 10.1359 105.382 10.7614 105.125 11.061C104.259 12.072 102.686 12.796 101.711 12.6325C101.408 12.5817 101.406 12.568 101.626 12.1171C102.015 11.3181 103.014 10.5151 104.048 10.1692C104.57 9.99496 104.864 9.94304 105.374 9.93583C105.717 9.93098 105.763 9.94021 105.763 10.0138ZM119.403 10.0699C120.688 10.4045 122.045 11.5431 122.277 12.4819C122.308 12.6056 122.304 12.6077 122.005 12.6398C121.028 12.7443 119.736 12.1881 118.837 11.2759C118.485 10.9183 118.07 10.3091 117.988 10.0291L117.955 9.91576L118.49 9.94379C118.788 9.95939 119.193 10.0153 119.403 10.0699ZM116.104 11.2009C112.617 12.0213 109.407 13.6598 106.628 16.0387C105.962 16.6093 104.614 17.9688 104.079 18.6101C101.155 22.1152 99.3681 26.3093 98.9111 30.7419C98.8703 31.1373 98.837 31.6762 98.837 31.9394V32.418L99.1641 33.0162C99.6399 33.8861 100.178 34.7753 100.791 35.7059L101.33 36.5243L100.284 36.5479L99.2374 36.5715L99.4359 36.7868C99.545 36.9052 99.7374 37.0582 99.8634 37.1267C100.391 37.4139 99.587 37.3959 111.886 37.3953C123.971 37.3947 123.321 37.4075 123.832 37.16C124.041 37.059 124.467 36.6771 124.467 36.5913C124.467 36.5663 124.069 36.5479 123.528 36.5479H122.589L123.097 35.7588C123.687 34.8426 124.163 34.0322 124.774 32.9023L125.21 32.0959L125.734 32.0826L126.258 32.0693V31.2464V30.4235H123.413H120.568L120.15 30.061C115.931 26.401 114.039 20.6498 115.24 15.1361C115.501 13.9407 115.987 12.5858 116.542 11.5105C116.669 11.2632 116.75 11.0625 116.722 11.0644C116.693 11.0663 116.415 11.1277 116.104 11.2009ZM97.5719 12.6627C97.7326 13.79 97.29 15.271 96.5448 16.0998C96.362 16.303 95.9709 16.62 95.9028 16.62C95.8711 16.62 95.735 16.2831 95.684 16.0783C95.4358 15.0815 95.7595 13.6607 96.4569 12.6863C96.5682 12.5308 96.8141 12.2552 97.0033 12.0739L97.3474 11.7441L97.4345 12.0267C97.4824 12.1822 97.5442 12.4684 97.5719 12.6627ZM126.923 12.223C127.522 12.8551 127.944 13.7458 128.096 14.6989C128.179 15.2169 128.136 15.9566 128.001 16.3138C127.942 16.4693 127.888 16.6034 127.881 16.6118C127.845 16.6544 127.547 16.4468 127.325 16.2244C126.838 15.738 126.413 14.8792 126.232 14.0168C126.107 13.4244 126.168 12.3697 126.355 11.8774L126.4 11.7601L126.576 11.9012C126.673 11.9788 126.829 12.1236 126.923 12.223ZM115.209 12.4154C114.763 13.4842 114.357 15.0292 114.171 16.3609C114.065 17.1185 114.026 19.063 114.1 19.882C114.331 22.4298 115.17 24.9367 116.506 27.0711C116.797 27.5364 117.624 28.6589 118 29.1007C118.135 29.2596 118.155 29.302 118.083 29.2797C118.031 29.2637 117.65 29.1339 117.235 28.9914C115.466 28.383 113.582 28.0133 111.582 27.8819C107.8 27.6333 103.893 28.4336 100.439 30.1645C100.103 30.3329 99.8173 30.4706 99.8047 30.4706C99.792 30.4706 99.7914 30.4123 99.8033 30.3411C99.8153 30.2698 99.8792 29.8785 99.9453 29.4715C100.691 24.8824 103.13 20.3863 106.597 17.207C108.911 15.086 111.552 13.5199 114.432 12.5624C115.2 12.3071 115.258 12.296 115.209 12.4154ZM103.054 13.6274C103.497 13.7446 103.93 13.9208 104.222 14.1037C104.37 14.1962 104.491 14.2861 104.491 14.3036C104.491 14.3692 103.846 14.7414 103.503 14.8731C102.967 15.0796 102.499 15.1596 101.829 15.1596C101.204 15.1596 100.699 15.0811 100.279 14.9185C100.045 14.8277 99.4495 14.4577 99.4495 14.4026C99.4495 14.3478 99.6676 14.1732 99.9442 14.0068C100.254 13.8202 100.823 13.6273 101.263 13.5593C101.662 13.4978 102.715 13.5379 103.054 13.6274ZM122.912 13.6521C123.368 13.7639 123.759 13.9462 124.099 14.2043L124.333 14.3823L124.176 14.5143C123.963 14.6944 123.425 14.9527 123.054 15.0531C122.605 15.1747 121.231 15.1714 120.769 15.0476C120.374 14.9418 119.753 14.6617 119.449 14.4522L119.228 14.3007L119.363 14.2094C119.783 13.9232 120.377 13.6866 120.95 13.5771C121.42 13.4872 122.392 13.5244 122.912 13.6521ZM94.189 15.5718C94.5016 16.1976 94.6428 16.7985 94.6434 17.5061C94.6443 18.5406 94.3211 19.5485 93.8121 20.0989L93.6092 20.3182L93.5156 20.2005C93.3622 20.0075 93.152 19.5398 93.0604 19.1876C92.9949 18.9351 92.9757 18.6921 92.9787 18.1511C92.9834 17.3183 93.1018 16.771 93.411 16.1533C93.5779 15.8199 93.954 15.2538 94.0086 15.2538C94.0204 15.2538 94.1016 15.3969 94.189 15.5718ZM130.071 15.6852C130.581 16.4593 130.781 17.1718 130.781 18.2195C130.781 19.0422 130.605 19.7157 130.279 20.1432L130.157 20.3032L129.952 20.1026C129.209 19.373 128.896 17.522 129.3 16.2417C129.449 15.7675 129.694 15.2538 129.771 15.2538C129.78 15.2538 129.915 15.448 130.071 15.6852ZM74.997 15.6587C74.3328 15.9464 74.1517 16.8511 74.6571 17.3565C74.8627 17.5621 75.1045 17.6632 75.3905 17.6632C76.2401 17.6632 76.7313 16.7872 76.2857 16.0666C76.0312 15.6551 75.4385 15.4675 74.997 15.6587ZM100.586 15.9354C101.04 16.015 101.486 16.1568 101.51 16.2293C101.536 16.3064 100.902 16.8608 100.546 17.072C99.8587 17.4804 99.1493 17.6941 98.3402 17.7365C98.0195 17.7533 97.6941 17.742 97.4921 17.707C97.1509 17.648 96.6226 17.44 96.6226 17.3646C96.6226 17.2747 96.939 16.9324 97.2112 16.7279C98.11 16.0522 99.4527 15.737 100.586 15.9354ZM125.019 16.0281C125.873 16.2604 126.454 16.5772 126.891 17.0492C127.035 17.2048 127.153 17.3495 127.153 17.3707C127.153 17.4281 126.731 17.5988 126.391 17.679C125.97 17.7783 125.301 17.7688 124.745 17.6554C124.153 17.5348 123.767 17.3945 123.308 17.1333C122.872 16.8852 122.168 16.2493 122.262 16.1886C122.354 16.1288 122.904 15.969 123.197 15.9167C123.631 15.8392 124.526 15.8939 125.019 16.0281ZM44.3489 17.2722C43.9748 17.4504 43.7466 17.8216 43.7505 18.2454C43.7532 18.5404 43.8075 18.6835 43.9997 18.9025C44.3128 19.2591 44.7949 19.3676 45.2235 19.178C45.9748 18.8457 46.0496 17.7997 45.3549 17.34C45.0968 17.1692 44.631 17.1378 44.3489 17.2722ZM47.0816 17.2179C46.7282 17.292 46.3509 17.8077 46.3518 18.2154C46.3523 18.465 46.5154 18.8507 46.6873 19.0087C46.9711 19.2695 47.5061 19.344 47.847 19.1702C48.0546 19.0642 48.3114 18.7943 48.3844 18.6052C48.4109 18.5369 48.4328 18.3623 48.4331 18.2174C48.4348 17.5173 47.8207 17.0631 47.0816 17.2179ZM73.4365 18.165C73.0634 18.3599 72.9004 18.6435 72.9004 19.0976C72.9004 19.4013 72.916 19.4609 73.0435 19.6422C73.2242 19.8993 73.4302 20.0386 73.7221 20.1013C74.376 20.2415 74.9763 19.7444 74.9678 19.0698C74.9577 18.2701 74.1495 17.7925 73.4365 18.165ZM76.4071 18.1629C76.0702 18.3335 75.892 18.5958 75.858 18.9711C75.828 19.3022 75.8982 19.538 76.0929 19.7597C76.2993 19.9947 76.5641 20.1158 76.8784 20.1187C77.4761 20.1244 77.9193 19.6826 77.9171 19.0835C77.9139 18.2686 77.1355 17.794 76.4071 18.1629ZM50.7801 23.1212V28.0225L49.614 28.0099L48.4479 27.9973L48.4358 24.3047L48.4238 20.6121L47.0224 20.639C45.5393 20.6675 45.2683 20.6997 44.59 20.9273C42.9759 21.4691 41.6823 22.847 41.2389 24.4967C41.0599 25.1625 41.0224 25.822 41.0373 28.0444L41.0509 30.0702L42.0715 30.0828L43.0921 30.0956L43.1121 27.7509C43.1344 25.1254 43.1296 25.1679 43.4856 24.441C43.9576 23.4773 45.0066 22.791 46.0922 22.736L46.3277 22.724L46.3398 26.409L46.3519 30.094L54.7498 30.0821L63.1477 30.0702L63.3963 29.2457C63.8722 27.6682 63.8982 27.5324 63.8982 26.6311C63.8982 25.9211 63.8841 25.774 63.7736 25.3355C63.4822 24.1791 63.0377 23.4097 62.1876 22.5903C61.541 21.967 60.9145 21.5927 60.0426 21.3089C59.378 21.0926 58.885 21.0297 58.1 21.0608C57.3483 21.0908 56.7978 21.2155 56.111 21.5116C55.5116 21.77 55.0397 22.1021 53.9367 23.0422C53.4055 23.4949 52.9522 23.8675 52.9293 23.8702C52.9057 23.873 52.8853 22.656 52.8822 21.0602L52.8767 18.2454L51.8284 18.2327L50.7801 18.22V23.1212ZM99.0023 18.7012C99.0501 18.7489 98.909 18.9852 98.6022 19.3712C97.7521 20.4409 96.0362 21.1965 94.8944 21.0039C94.4381 20.9269 94.4258 20.9149 94.5507 20.6662C94.981 19.8098 96.1079 19.021 97.3058 18.7378C97.5974 18.6688 97.8285 18.6512 98.3275 18.6599C98.6821 18.6661 98.9858 18.6847 99.0023 18.7012ZM126.695 18.8053C127.779 19.1293 128.802 19.8788 129.178 20.623L129.32 20.9036L129.12 20.9627C129.008 20.9956 128.701 21.0194 128.425 21.0163C127.154 21.0023 125.754 20.2418 124.98 19.1449C124.853 18.9659 124.75 18.7925 124.75 18.7595C124.75 18.668 124.904 18.6517 125.622 18.6672C126.17 18.6791 126.351 18.7023 126.695 18.8053ZM91.8416 19.8C92.1206 20.1904 92.3546 20.6728 92.5062 21.17C92.6246 21.558 92.6347 21.6552 92.6379 22.4382C92.6418 23.3917 92.5744 23.7238 92.2843 24.1802L92.1352 24.4147L91.8598 24.1217C91.387 23.6188 91.0812 22.8417 90.9701 21.8608C90.8877 21.1331 91.0171 20.3357 91.3333 19.6223C91.4509 19.3569 91.456 19.3524 91.5467 19.4339C91.5978 19.4798 91.7305 19.6446 91.8416 19.8ZM132.444 19.6705C133.084 21.1028 132.835 23.1097 131.887 24.1431C131.643 24.4093 131.634 24.4143 131.562 24.3227C131.438 24.1648 131.265 23.7741 131.176 23.4511C131.073 23.0812 131.061 22.0407 131.153 21.5667C131.298 20.826 131.653 20.0803 132.11 19.5601C132.188 19.4719 132.267 19.3996 132.287 19.3996C132.306 19.3996 132.377 19.5215 132.444 19.6705ZM33.8238 21.3211L33.3566 22.2545L33.5995 22.3897C33.9777 22.6 34.4921 23.002 34.7774 23.3102C35.47 24.0582 35.8857 24.9849 36.0364 26.1166C36.0934 26.5449 36.0807 27.8661 36.0186 27.962C35.989 28.0078 35.4676 28.0209 33.6747 28.0209H31.3688V29.0576V30.0944L34.5592 30.0823L37.7495 30.0702L37.8786 29.4577C38.2454 27.7185 38.2825 26.4774 38.0062 25.2018C37.5831 23.2493 36.3114 21.5354 34.5379 20.5278L34.291 20.3876L33.8238 21.3211ZM9.54117 20.9896C8.78601 22.5705 8.31614 24.2445 8.11727 26.0623C8.06332 26.5552 8.03779 27.2595 8.03194 28.4178L8.02356 30.0702L14.2978 30.0821L20.5721 30.0941L20.5913 27.703C20.6098 25.3941 20.6141 25.2999 20.7157 24.9606C20.9003 24.3443 21.085 24.0297 21.5219 23.5877C22.078 23.025 22.6233 22.7754 23.3829 22.7356L23.6656 22.7209L23.6777 26.412L23.6897 30.1031L25.468 30.0819C26.9359 30.0643 27.2943 30.0469 27.5214 29.9824C28.7093 29.645 29.5587 28.8501 29.9446 27.7146L30.0727 27.3377L30.0868 23.9811L30.1009 20.6245H29.0623H28.0237V23.7263C28.0237 27.0931 28.0246 27.0803 27.7617 27.4598C27.4779 27.8692 26.9919 28.0393 26.1862 28.0112L25.7858 27.9973L25.7737 24.3048L25.7616 20.6122L24.3367 20.6383C23.258 20.6581 22.8259 20.6835 22.5584 20.7429C20.8782 21.1162 19.5799 22.2065 18.9252 23.794C18.5984 24.5863 18.5066 25.2654 18.5066 26.8884V28.0209H14.3134H10.1202V27.4199C10.1202 26.0881 10.4151 24.4814 10.9157 23.0866C11.1075 22.5522 11.4919 21.6615 11.6059 21.4871C11.6719 21.3862 11.6539 21.3736 10.7851 20.91C10.2966 20.6493 9.87629 20.436 9.85123 20.436C9.82612 20.436 9.68661 20.6851 9.54117 20.9896ZM78.7961 20.9299C78.359 21.198 77.9811 21.4377 77.9563 21.4625C77.9276 21.4912 77.9974 21.6794 78.1487 21.9808C78.5825 22.8452 78.9268 24.021 79.0481 25.0526C79.1399 25.8335 79.0958 27.5122 78.9722 27.9384C78.9502 28.0143 78.8485 28.0209 77.7029 28.0209H76.4575V24.7467V21.4725H75.4213H74.3852L74.373 24.7349L74.3609 27.9973L73.5721 28.0102L72.7833 28.0231L72.7711 24.7596L72.759 21.496H71.7225H70.686L70.6739 24.7591L70.6618 28.0222L69.1898 28.0097L67.7178 27.9973L67.7057 24.3109L67.6936 20.6245H66.6574H65.6212L65.6204 24.9233C65.6194 29.7282 65.6288 29.5776 65.2898 30.2617C65.0536 30.7386 64.6908 31.1466 64.2274 31.4565C63.7427 31.7807 63.254 31.9308 62.5705 31.9653L62.0405 31.9921V33.0216V34.051L62.4527 34.0501C63.5114 34.0477 64.5648 33.7359 65.4185 33.1722C65.7833 32.9313 66.4164 32.3201 66.7066 31.9286C66.9939 31.5411 67.3202 30.8932 67.4587 30.4353L67.5621 30.0937H74.08C78.0772 30.0937 80.6086 30.0767 80.6253 30.0496C80.6783 29.9638 80.9784 28.6029 81.0506 28.121C81.3693 25.9916 81.1363 23.8214 80.3823 21.8965C80.131 21.2549 79.7142 20.4347 79.6418 20.4393C79.6137 20.4411 79.2331 20.6619 78.7961 20.9299ZM97.0731 21.8376C97.0219 22.0522 96.7366 22.6262 96.53 22.9305C96.1075 23.5525 95.2517 24.246 94.5346 24.5473C94.1498 24.709 93.6753 24.8154 93.3342 24.8165L93.0847 24.8173L93.1161 24.6407C93.2442 23.9208 94.0195 22.9403 94.9164 22.3642C95.5094 21.9833 96.2901 21.7201 96.8515 21.7117C97.1036 21.708 97.1039 21.7082 97.0731 21.8376ZM127.525 21.8035C128.819 22.1137 130.137 23.2021 130.53 24.2851C130.59 24.4506 130.639 24.6381 130.639 24.7017C130.639 24.8092 130.623 24.8173 130.401 24.8173C129.339 24.8173 127.896 23.9434 127.182 22.8675C127.001 22.5954 126.716 22.01 126.669 21.814C126.645 21.7145 126.658 21.708 126.886 21.7083C127.02 21.7085 127.307 21.7513 127.525 21.8035ZM59.402 23.2771C60.5489 23.6616 61.3888 24.5369 61.7185 25.691C61.8716 26.2269 61.8658 27.0842 61.7055 27.6204L61.5929 27.9973L57.2465 28.0093L52.9002 28.0213L52.8954 27.6089C52.8927 27.382 52.8874 27.0817 52.8836 26.9414L52.8767 26.6862L54.5628 25.2454C55.4901 24.4529 56.3787 23.7252 56.5375 23.6283C57.1547 23.2516 57.6967 23.1158 58.4833 23.1407C58.9283 23.1548 59.1239 23.1838 59.402 23.2771ZM90.4541 24.4047C91.2714 25.2102 91.7725 26.3851 91.7855 27.5262C91.7913 28.0331 91.6868 28.5916 91.5731 28.6619C91.5004 28.7069 91.0771 28.4019 90.8067 28.1098C90.2277 27.4845 89.81 26.5154 89.6986 25.5392C89.6522 25.1327 89.7012 24.4289 89.7984 24.1044L89.8521 23.9252L89.992 24.0061C90.0689 24.0507 90.2769 24.23 90.4541 24.4047ZM133.99 24.2167C134.031 24.4013 134.053 24.7658 134.05 25.1942C134.045 25.7896 134.029 25.9317 133.918 26.3013C133.64 27.2332 133.115 28.0653 132.551 28.4674C132.387 28.5845 132.232 28.6804 132.206 28.6804C132.181 28.6804 132.12 28.5585 132.071 28.4095C131.928 27.973 131.948 27.0964 132.115 26.4898C132.372 25.5533 132.884 24.7283 133.545 24.183C133.719 24.0396 133.876 23.9222 133.893 23.9222C133.91 23.9222 133.954 24.0547 133.99 24.2167ZM95.8688 25.0712C95.8688 25.2808 95.6989 25.975 95.5735 26.2778C95.2941 26.9524 94.9571 27.4301 94.3806 27.9684C93.8418 28.4715 93.0928 28.8688 92.6832 28.8688H92.5571L92.5842 28.5453C92.6749 27.463 93.5601 26.1633 94.6673 25.4868C94.9331 25.3244 95.6804 25.0108 95.8099 25.0073C95.8423 25.0065 95.8688 25.0352 95.8688 25.0712ZM128.193 25.0817C128.825 25.2696 129.505 25.7054 130.012 26.2479C130.644 26.925 131.058 27.6939 131.154 28.3705C131.227 28.89 131.188 28.9288 130.73 28.7929C129.598 28.457 128.453 27.2309 128.05 25.9244C127.956 25.6174 127.866 25.0058 127.915 25.0058C127.927 25.0058 128.052 25.04 128.193 25.0817ZM95.3784 29.3268C95.3203 30.3298 94.8862 31.3526 94.1841 32.1407C93.7789 32.5955 93.0608 33.0524 92.9403 32.9319C92.8523 32.8439 92.8361 32.0411 92.9148 31.6711C93.1272 30.6729 93.7844 29.5819 94.511 29.0219C94.6488 28.9157 94.8888 28.7522 95.0442 28.6586L95.3269 28.4884L95.3652 28.6904C95.3863 28.8015 95.3922 29.0879 95.3784 29.3268ZM129.015 28.8512C129.327 29.054 129.921 29.6685 130.145 30.0207C130.403 30.4235 130.665 31.003 130.785 31.4372C130.896 31.8339 130.93 32.4607 130.86 32.7952C130.825 32.9626 130.812 32.9738 130.695 32.9445C130.515 32.8993 130.084 32.6289 129.815 32.3924C129.311 31.9488 128.729 30.9814 128.517 30.2351C128.412 29.8658 128.337 28.8495 128.397 28.6112L128.428 28.4863L128.603 28.5916C128.7 28.6495 128.885 28.7663 129.015 28.8512ZM112.453 28.8001C114.873 29.0614 117.169 29.7124 119.296 30.74C119.705 30.9372 120.039 31.1185 120.039 31.143C120.039 31.1675 119.939 31.323 119.817 31.4886L119.596 31.7897H114.988H110.38V30.2281V28.6664L111.099 28.6989C111.494 28.7168 112.103 28.7623 112.453 28.8001ZM89.5921 28.8638C90.6412 29.394 91.5265 30.5005 91.8644 31.7037C91.9656 32.0642 92.0019 32.8955 91.92 32.9775C91.8528 33.0446 91.3835 32.8423 91.0291 32.5934C90.1929 32.0062 89.467 30.8267 89.2751 29.7435C89.2109 29.3808 89.2102 28.7275 89.2741 28.7275C89.3007 28.7275 89.4438 28.7888 89.5921 28.8638ZM109.061 30.2586V31.7897H104.175C101.317 31.7897 99.3078 31.7723 99.334 31.7478C99.417 31.67 100.309 31.1722 100.863 30.8944C102.469 30.0895 104.229 29.4817 105.975 29.1288C107.082 28.905 108.201 28.7493 108.813 28.7338L109.061 28.7275V30.2586ZM134.536 29.2104C134.467 30.3836 133.956 31.4573 133.067 32.2989C132.701 32.6452 132.27 32.9128 131.952 32.9915C131.832 33.0211 131.826 33.0131 131.794 32.7785C131.648 31.7195 132.431 30.1096 133.489 29.2936C133.768 29.0782 134.389 28.7308 134.498 28.7287C134.552 28.7277 134.559 28.814 134.536 29.2104ZM13.8289 31.4668C13.3085 31.582 12.993 31.9755 12.9952 32.5066C12.9976 33.0995 13.4349 33.5328 14.0307 33.5328C14.6265 33.5328 15.0637 33.0995 15.0662 32.5066C15.069 31.8251 14.473 31.3242 13.8289 31.4668ZM16.5277 31.4581C16.0169 31.5575 15.6785 31.9765 15.6807 32.5066C15.6832 33.0995 16.1204 33.5328 16.7162 33.5328C17.3175 33.5328 17.7507 33.0988 17.7507 32.4964C17.7507 32.3463 17.7146 32.1578 17.6649 32.0484C17.4776 31.6363 16.969 31.3722 16.5277 31.4581ZM27.7093 31.4662C27.3293 31.5332 27.1096 31.7073 26.944 32.0724C26.7397 32.523 26.8993 33.0849 27.3099 33.3606C27.7408 33.65 28.33 33.5697 28.6782 33.1742C29.3354 32.4276 28.6917 31.2931 27.7093 31.4662ZM95.7499 32.7104C96.0392 34.1109 95.4529 35.9375 94.4646 36.7143C94.1511 36.9607 94.134 36.9522 93.9882 36.4779C93.8621 36.0678 93.8272 35.5939 93.889 35.1335C94.0463 33.9636 94.4599 33.0877 95.1998 32.358L95.5551 32.0076L95.6166 32.1853C95.6504 32.2831 95.7104 32.5194 95.7499 32.7104ZM128.935 32.7774C129.478 33.4452 129.828 34.4228 129.872 35.3958C129.899 36.005 129.857 36.3059 129.691 36.6924L129.592 36.9236L129.451 36.8417C129.223 36.7087 128.73 36.155 128.545 35.8255C128.34 35.4575 128.118 34.8653 128.016 34.4087C127.87 33.7606 127.933 32.6963 128.149 32.1257C128.191 32.0152 128.194 32.0162 128.438 32.2418C128.573 32.3671 128.797 32.6081 128.935 32.7774ZM90.0433 33.6073C90.3932 33.6974 91.0206 33.9849 91.3267 34.1955C91.6602 34.4249 92.2103 34.9638 92.4716 35.3172C92.8706 35.8566 93.0961 36.3757 93.1626 36.9082L93.1941 37.1603H93.0287C92.5888 37.1603 91.8675 36.83 91.2866 36.3626C90.4479 35.6877 89.8062 34.6482 89.6708 33.7452C89.6339 33.4994 89.6297 33.5009 90.0433 33.6073ZM134.098 33.7095C133.997 34.2692 133.706 34.9416 133.35 35.4408C133.082 35.8159 132.458 36.4066 132.052 36.6694C131.662 36.922 131.207 37.101 130.851 37.1429L130.592 37.1733V37.0278C130.592 36.091 131.556 34.7114 132.68 34.0401C133.009 33.8435 133.829 33.534 134.022 33.5332C134.121 33.5329 134.127 33.5473 134.098 33.7095ZM96.7009 35.7352C96.8927 36.0885 97.0692 36.6267 97.1427 37.0826C97.2664 37.8487 97.1024 39.083 96.797 39.6857C96.6418 39.9918 96.2474 40.5136 96.1864 40.4933C96.0963 40.4633 95.7717 39.8716 95.6766 39.5637C95.5402 39.1225 95.4828 38.4115 95.5377 37.8443C95.595 37.2529 95.7283 36.7712 95.9662 36.2951C96.1499 35.9275 96.4596 35.4644 96.5215 35.4644C96.5392 35.4644 96.6199 35.5862 96.7009 35.7352ZM127.521 35.8373C127.811 36.2765 128.007 36.7309 128.127 37.2399C128.246 37.7482 128.246 38.9363 128.127 39.3745C128.025 39.7521 127.849 40.1423 127.684 40.3585L127.559 40.522L127.359 40.294C126.946 39.825 126.682 39.1193 126.586 38.2273C126.519 37.6031 126.586 36.9754 126.782 36.384C126.919 35.9718 127.172 35.4644 127.241 35.4644C127.26 35.4644 127.386 35.6322 127.521 35.8373ZM53.3007 36.6701C52.562 36.8337 52.0454 37.1211 51.4874 37.6791C50.6846 38.4818 50.3703 39.2986 50.4179 40.4581C50.4453 41.1265 50.5452 41.5199 50.8126 42.0116C51.012 42.3784 51.0825 42.472 51.4305 42.8324C52.1142 43.5404 53.0035 43.8994 54.082 43.9027C55.2142 43.9061 56.0601 43.5697 56.8135 42.8164C57.7568 41.8731 58.1075 40.5246 57.7475 39.2242C57.413 38.0159 56.4437 37.0478 55.2324 36.7122C54.8237 36.599 53.7295 36.5751 53.3007 36.6701ZM71.1565 36.6642C69.703 36.9807 68.5813 38.0896 68.2809 39.5071C68.1923 39.9251 68.1949 40.6121 68.2869 41.0607C68.6363 42.7646 70.0851 43.9002 71.9134 43.9031C72.9793 43.9047 73.8058 43.5902 74.5459 42.9014L74.8231 42.6434L74.2387 42.1456L73.6542 41.648L73.4006 41.8797C73.1044 42.1504 72.8884 42.269 72.515 42.3663C71.7737 42.5594 70.9662 42.3503 70.447 41.8311C69.4011 40.7849 69.698 38.9005 71.0053 38.2891C71.7922 37.9209 72.6755 38.0324 73.3545 38.5854L73.6196 38.8013L74.1787 38.3067C74.4863 38.0347 74.7441 37.7951 74.7517 37.7743C74.7683 37.7293 74.3612 37.3807 74.0327 37.1586C73.7252 36.9507 73.243 36.7574 72.8078 36.6675C72.3845 36.5801 71.5504 36.5784 71.1565 36.6642ZM8 40.2461V43.8102L9.7079 43.7913C11.3009 43.7737 11.439 43.7655 11.761 43.6687C13.4571 43.1593 14.5018 41.8457 14.5018 40.2225C14.5018 38.6123 13.4436 37.285 11.7927 36.8245C11.4417 36.7265 11.2984 36.7181 9.7079 36.7007L8 36.682V40.2461ZM15.6913 39.1272C15.708 41.4278 15.7145 41.5825 15.8058 41.8726C16.1292 42.9001 16.8339 43.5694 17.8595 43.8231C18.278 43.9266 19.1323 43.9289 19.5698 43.8276C20.2644 43.6669 20.9354 43.2097 21.3139 42.6395C21.4123 42.4914 21.5576 42.1891 21.6369 41.9677L21.781 41.5652L21.7952 39.1272L21.8093 36.6892H21.032H20.2547L20.2402 38.9859C20.2259 41.2601 20.2247 41.2852 20.1168 41.5529C19.8808 42.1386 19.3514 42.4635 18.695 42.4255C18.1114 42.3917 17.6916 42.1101 17.4515 41.5912C17.3554 41.3836 17.3518 41.3018 17.3388 39.033L17.3253 36.6892H16.4995H15.6736L15.6913 39.1272ZM23.4536 40.2461V43.803H25.3754C27.453 43.803 27.588 43.7899 28.1062 43.5389C28.4809 43.3574 28.8439 42.9995 29.0238 42.6343C29.1684 42.3405 29.178 42.29 29.178 41.8253C29.178 41.387 29.1635 41.2987 29.0527 41.0623C28.8889 40.713 28.602 40.4068 28.2817 40.2394C28.1399 40.1653 28.0239 40.0918 28.0238 40.0758C28.0238 40.0599 28.1032 39.9915 28.2004 39.9239C28.7069 39.571 28.9852 38.8693 28.8702 38.2351C28.7682 37.6725 28.4367 37.2311 27.9182 36.9673C27.4118 36.7096 27.23 36.6907 25.2557 36.6899L23.4536 36.6892V40.2461ZM32.4105 36.8895C32.209 37.3594 29.6256 43.7464 29.6256 43.7744C29.6256 43.7913 30.0006 43.7993 30.459 43.7923L31.2925 43.7794L31.3942 43.5203C31.4502 43.3778 31.575 43.0545 31.6717 42.8018L31.8473 42.3425L33.2453 42.3428L34.6433 42.343L34.8966 43.021C35.0359 43.3938 35.1647 43.7228 35.1827 43.752C35.2057 43.7891 35.4779 43.8012 36.0841 43.7923L36.9527 43.7794L35.5153 40.2346L34.0779 36.6899L33.2871 36.6896L32.4963 36.6892L32.4105 36.8895ZM37.8236 40.2461V43.803H38.6716H39.5197V40.2461V36.6892H38.6716H37.8236V40.2461ZM43.76 40.2461V43.803H44.5609H45.3619V42.7011V41.5993L46.3631 41.5766C47.0893 41.5602 47.4419 41.5325 47.6469 41.4761C48.6841 41.1905 49.3965 40.4136 49.5045 39.45C49.5712 38.8559 49.4654 38.289 49.2051 37.845C49.0314 37.5487 48.557 37.1262 48.2217 36.9694C47.6779 36.7149 47.4459 36.6909 45.515 36.69L43.76 36.6892V40.2461ZM59.2136 40.2461V43.803H61.7342H64.2548V43.0963V42.3896H62.5352H60.8155V39.5394V36.6892H60.0145H59.2136V40.2461ZM65.2443 40.2461V43.803H66.0688H66.8933V40.2461V36.6892H66.0688H65.2443V40.2461ZM75.845 40.2461V43.803H78.5306H81.2161V43.1199V42.4367H79.3315H77.4469V41.6123V40.7879H79.0266H80.6063L80.5932 40.1401L80.5801 39.4923L79.0135 39.4799L77.4469 39.4675V38.785V38.1026H79.2609H81.0748V37.3959V36.6892H78.4599H75.845V40.2461ZM26.8459 38.0582C26.9605 38.1215 27.1046 38.2474 27.1662 38.3381C27.2619 38.4791 27.2754 38.5466 27.2596 38.8032C27.2423 39.0837 27.2285 39.1152 27.0494 39.2823C26.944 39.3806 26.7756 39.4838 26.6751 39.5117C26.5747 39.5396 26.1691 39.5626 25.774 39.5627L25.0555 39.563V38.7325V37.9021L25.8465 37.9226C26.5759 37.9416 26.6538 37.9522 26.8459 38.0582ZM47.1406 38.1105C47.298 38.1501 47.4274 38.2323 47.6038 38.4049C47.807 38.6037 47.8576 38.6874 47.9018 38.8982C47.9614 39.1825 47.9335 39.4127 47.8101 39.6572C47.6986 39.8779 47.5517 40.008 47.2695 40.1361C47.0546 40.2337 46.9639 40.2429 46.21 40.2444L45.3854 40.2461L45.3728 39.1508L45.3601 38.0554H46.1411C46.5803 38.0554 47.0176 38.0795 47.1406 38.1105ZM54.6095 38.1247C55.9901 38.4173 56.6888 39.9658 56.0361 41.2863C55.8411 41.6807 55.4633 42.0585 55.0911 42.2313C54.5251 42.4939 53.7844 42.5036 53.2537 42.2553C52.8869 42.0836 52.4491 41.6845 52.2732 41.3614C51.8265 40.5407 51.9471 39.4391 52.5581 38.7596C53.0738 38.186 53.8155 37.9565 54.6095 38.1247ZM11.3012 38.1785C11.6905 38.294 11.9953 38.4651 12.264 38.7193C12.7236 39.1539 12.9256 39.6942 12.8891 40.3913C12.8604 40.9401 12.6937 41.3248 12.3108 41.7263C11.8186 42.2423 11.2453 42.4367 10.2164 42.4367H9.64901V40.2696V38.1026H10.3472C10.852 38.1026 11.1162 38.1236 11.3012 38.1785ZM92.2467 38.2623C92.4897 38.3242 92.8139 38.4306 92.9673 38.4987C93.6947 38.8218 94.6028 39.589 94.9406 40.1657C95.1324 40.493 95.287 40.9142 95.2346 40.9664C95.2161 40.9848 95.0067 40.9977 94.7692 40.9951C93.5047 40.9812 91.9783 39.9746 91.3059 38.7114C90.9962 38.1296 90.9918 38.1497 91.4307 38.1497C91.6705 38.1497 91.9635 38.1901 92.2467 38.2623ZM132.666 38.2645C132.136 39.6603 130.576 40.862 129.112 41.0029C128.954 41.0181 128.747 41.013 128.652 40.9916L128.478 40.9528L128.572 40.6752C128.699 40.3015 128.94 39.9303 129.289 39.5717C130.157 38.6815 131.264 38.1637 132.323 38.1534L132.71 38.1497L132.666 38.2645ZM100.58 38.4245C100.58 38.4927 100.926 38.8136 101.126 38.9314C101.232 38.9937 101.423 39.0812 101.55 39.126C101.766 39.2019 102.439 39.2083 111.581 39.2219C118.032 39.2315 121.517 39.22 121.778 39.1885C122.357 39.1185 122.98 38.7938 123.152 38.473C123.197 38.3875 122.906 38.3852 111.889 38.3852C105.669 38.3852 100.58 38.4029 100.58 38.4245ZM98.4504 38.8681C98.9083 39.444 99.184 40.0275 99.3352 40.7408C99.4504 41.284 99.4534 42.2522 99.3412 42.6723C99.241 43.0476 98.9932 43.5674 98.9145 43.5674C98.8827 43.5674 98.7695 43.4773 98.6631 43.3672C97.6889 42.3591 97.3966 40.2825 98.0317 38.8818C98.1086 38.7123 98.1816 38.5737 98.1939 38.5737C98.2062 38.5737 98.3217 38.7062 98.4504 38.8681ZM125.907 39.4067C126.266 40.6312 125.979 42.2779 125.252 43.1714C125.144 43.3033 125.005 43.4498 124.943 43.4968C124.834 43.5796 124.828 43.5795 124.761 43.4924C124.626 43.3166 124.463 42.9102 124.39 42.57C124.291 42.1016 124.326 41.0501 124.459 40.5486C124.639 39.8674 124.976 39.2217 125.391 38.7624L125.569 38.5659L125.677 38.7786C125.736 38.8956 125.84 39.1782 125.907 39.4067ZM33.7192 39.8318C33.9553 40.459 34.1486 40.9943 34.1486 41.0213C34.1486 41.0539 33.8366 41.0705 33.2299 41.0705C32.7246 41.0705 32.3111 41.0573 32.3111 41.0411C32.3111 40.9416 33.2284 38.6245 33.2559 38.6545C33.2745 38.6749 33.483 39.2046 33.7192 39.8318ZM102.371 40.2154C102.371 40.2374 102.47 40.3535 102.592 40.4733C102.851 40.7286 103.192 40.9021 103.574 40.9728C103.763 41.0076 106.352 41.0232 111.885 41.0226C120.479 41.0217 120.277 41.027 120.734 40.7936C120.966 40.6755 121.185 40.4939 121.313 40.313L121.411 40.1754H111.891C106.655 40.1754 102.371 40.1934 102.371 40.2154ZM26.9924 40.8133C27.3849 40.9517 27.6002 41.247 27.5989 41.6453C27.5976 42.0715 27.3292 42.4106 26.8985 42.5302C26.8048 42.5563 26.3517 42.5777 25.8918 42.5778L25.0555 42.5781V41.6594V40.7408H25.9212C26.58 40.7408 26.836 40.7581 26.9924 40.8133ZM100.753 41.4864C101.785 42.303 102.434 43.63 102.438 44.9336C102.44 45.4846 102.335 46.0172 102.224 46.0172C102.128 46.0172 101.672 45.6826 101.46 45.4555C101.043 45.0095 100.687 44.3459 100.457 43.5862C100.346 43.2194 100.33 43.0815 100.326 42.4839C100.321 41.8292 100.393 41.3061 100.486 41.3061C100.507 41.3061 100.627 41.3873 100.753 41.4864ZM123.375 41.5926C123.41 41.7338 123.438 42.1111 123.439 42.4367C123.44 42.9174 123.418 43.11 123.32 43.4845C123.172 44.0548 122.803 44.8291 122.499 45.2072C122.158 45.6331 121.613 46.0641 121.503 45.9961C121.481 45.9823 121.426 45.8348 121.381 45.6683C121.262 45.23 121.302 44.4005 121.47 43.8265C121.631 43.2731 122.003 42.5379 122.314 42.1553C122.587 41.8191 123.184 41.2944 123.262 41.3206C123.29 41.3298 123.341 41.4522 123.375 41.5926ZM105.382 42.1005C105.509 42.3361 106.001 42.6489 106.422 42.7608C106.582 42.8034 107.946 42.8139 111.982 42.8036L117.329 42.7901L117.6 42.6807C117.852 42.579 118.39 42.1531 118.39 42.0551C118.39 42.0302 115.697 42.0127 111.863 42.0127C105.51 42.0127 105.337 42.0151 105.382 42.1005ZM94.9667 42.2502C95.6918 42.3412 96.5485 42.6805 97.1644 43.1209C97.518 43.3737 97.7425 43.6088 97.9623 43.9566L98.1338 44.2279L98.0104 44.2748C97.6879 44.3974 97.4374 44.4269 96.9141 44.4037C95.9015 44.3588 94.8866 43.9322 94.0924 43.2178C93.8544 43.0037 93.4188 42.4673 93.4188 42.3883C93.4188 42.3668 93.5301 42.3273 93.6661 42.3005C94.2029 42.1947 94.4485 42.1853 94.9667 42.2502ZM130.13 42.3017C130.255 42.3284 130.357 42.3616 130.357 42.3755C130.357 42.4397 130.005 42.8669 129.727 43.1414C129.203 43.6574 128.566 44.0214 127.779 44.2547C127.224 44.4192 126.416 44.4617 125.978 44.3492C125.81 44.3063 125.665 44.2628 125.655 44.2523C125.606 44.2037 125.921 43.7323 126.158 43.4981C126.528 43.1339 126.824 42.9288 127.328 42.6901C128.257 42.2503 129.249 42.1127 130.13 42.3017ZM104.234 43.9689C104.928 44.4613 105.565 45.3466 105.893 46.2763C106.045 46.7061 106.104 47.6466 105.982 47.6932C105.87 47.7362 105.26 47.4376 104.947 47.1867C104.445 46.7845 103.962 46.1611 103.662 45.5298C103.405 44.9883 103.308 44.5964 103.279 43.9757L103.253 43.4182L103.601 43.5925C103.792 43.6884 104.077 43.8578 104.234 43.9689ZM120.495 43.9325C120.479 44.1851 120.424 44.555 120.373 44.7545C120.115 45.7543 119.374 46.8285 118.589 47.3412C118.244 47.5669 117.798 47.7499 117.739 47.6904C117.676 47.6281 117.714 46.7923 117.793 46.4883C117.91 46.0364 118.345 45.1977 118.681 44.7758C119.027 44.3404 119.602 43.8641 120.057 43.6359C120.536 43.3952 120.529 43.3903 120.495 43.9325ZM109.249 43.8501C109.249 43.9529 109.652 44.2908 109.925 44.418C110.337 44.6091 110.684 44.6502 111.888 44.6502C113.05 44.6502 113.437 44.6081 113.802 44.4419C114.048 44.3294 114.4 44.0442 114.483 43.8895C114.528 43.806 114.436 43.803 111.889 43.803C110.161 43.803 109.249 43.8192 109.249 43.8501ZM106.933 45.0761C108.475 45.5033 109.826 46.9271 110.029 48.3374L110.061 48.5611H109.869C109.393 48.5611 108.629 48.2033 108.013 47.6927C107.243 47.0538 106.624 46.0339 106.489 45.1809C106.451 44.9427 106.452 44.9427 106.933 45.0761ZM117.306 45.013C117.306 45.1198 117.133 45.7043 117.021 45.9762C116.649 46.8768 115.773 47.8168 114.891 48.2609C114.54 48.4379 114.122 48.5611 113.873 48.5611H113.712L113.742 48.2758C113.804 47.6749 114.239 46.8883 114.851 46.2671C115.272 45.8399 115.679 45.5486 116.189 45.3095C116.675 45.082 117.306 44.9145 117.306 45.013ZM99.4644 45.6433C99.9902 45.7505 100.524 45.9526 100.886 46.1818C101.131 46.3367 101.57 46.7467 101.57 46.8211C101.57 46.8944 101.019 47.1456 100.686 47.2243C99.9631 47.3952 98.8118 47.2824 98.0122 46.9622C97.5968 46.7959 96.9664 46.3957 96.7261 46.1458L96.5704 45.9839L96.7967 45.8885C97.6374 45.534 98.5271 45.4523 99.4644 45.6433ZM126.107 45.6205C126.47 45.6952 127.041 45.8954 127.129 45.9796C127.223 46.0687 126.466 46.6338 125.907 46.892C124.747 47.4279 123.112 47.4401 122.289 46.919L122.135 46.8219L122.42 46.545C122.883 46.095 123.529 45.788 124.373 45.617C124.807 45.5291 125.669 45.5309 126.107 45.6205ZM103.976 47.9702C104.522 48.0525 104.855 48.1719 105.251 48.4274L105.549 48.6203L105.33 48.8189C104.662 49.4232 103.277 49.7289 102.121 49.5273C101.632 49.442 101.001 49.2197 100.692 49.0238L100.464 48.8791L100.628 48.7427C100.879 48.5329 101.559 48.1998 101.962 48.0894C102.654 47.8995 103.267 47.8632 103.976 47.9702ZM121.5 48.0153C121.976 48.1165 122.553 48.3581 122.945 48.6205C123.361 48.8984 123.368 48.8774 122.748 49.1783C122.279 49.4055 121.759 49.5402 121.199 49.5795C120.486 49.6296 119.527 49.4613 118.987 49.1913C118.675 49.0349 118.248 48.717 118.248 48.6405C118.248 48.5379 118.775 48.2341 119.167 48.1109C119.374 48.0457 119.682 47.9732 119.85 47.9497C120.238 47.8957 121.099 47.93 121.5 48.0153ZM108.974 49.2874C109.164 49.3241 109.422 49.3979 109.546 49.4515C109.757 49.5426 109.768 49.5558 109.715 49.6544C109.524 50.012 108.825 50.5517 108.26 50.7786C107.6 51.0434 107.268 51.1147 106.576 51.1397C105.998 51.1607 105.844 51.1499 105.463 51.062C104.799 50.9086 104.797 50.9036 105.182 50.5226C105.739 49.9707 106.286 49.6557 107.078 49.4293C107.81 49.2202 108.398 49.1762 108.974 49.2874ZM115.916 49.2695C116.769 49.3907 117.567 49.7052 118.154 50.1518C118.464 50.3876 118.861 50.786 118.861 50.8617C118.861 50.8844 118.696 50.9538 118.496 51.0158C118.169 51.1168 118.046 51.1284 117.329 51.1259C116.594 51.1233 116.494 51.1125 116.105 50.9932C115.543 50.8209 114.992 50.5563 114.64 50.2896C114.341 50.0629 113.994 49.663 114.022 49.5769C114.031 49.5494 114.157 49.4792 114.303 49.421C114.769 49.2341 115.31 49.1833 115.916 49.2695Z" fill="white"/>
</svg>
