<svg width="46" height="46" viewBox="0 0 46 46" fill="none" xmlns="http://www.w3.org/2000/svg">
<g clip-path="url(#clip0_12_105)">
<path fill-rule="evenodd" clip-rule="evenodd" d="M44.0071 21.2977C44.7842 20.6445 45.385 19.853 45.8045 18.9328V18.928C45.8713 18.7707 45.938 18.6134 45.9952 18.4513V45.9902H-0.00476074V22.2608C0.438647 22.5135 1.01079 22.7375 1.70212 22.9235C2.64615 23.1762 3.71414 23.3049 4.91564 23.3049C6.25063 23.3049 7.45212 23.1333 8.52965 22.79C9.60718 22.4467 10.5321 21.9461 11.3093 21.2929C12.0864 20.6397 12.6872 19.8482 13.1068 18.928C13.5311 18.0079 13.7409 16.9923 13.7409 15.8814C13.7409 14.6179 13.493 13.5785 12.9923 12.768C12.4917 11.9575 11.8624 11.2709 11.109 10.7035C10.3557 10.1409 9.5452 9.66416 8.67745 9.2732C7.80971 8.887 6.99918 8.47697 6.24586 8.0574C5.48778 7.63783 4.86319 7.16105 4.36257 6.64135C3.86195 6.11689 3.61402 5.42556 3.61402 4.62456C3.61402 3.82357 3.93823 3.12747 4.58189 2.52672C5.22555 1.92597 6.05992 1.6256 7.08023 1.6256C9.05411 1.6256 10.3986 2.58393 11.109 4.49106H11.6097C11.74 4.05467 11.8586 3.66375 11.9634 3.3183C12.0349 3.08252 12.0999 2.86793 12.158 2.67452C12.301 2.19774 12.4726 1.70188 12.6729 1.19173C12.0292 0.676802 11.2616 0.281072 10.3605 -0.00976562H15.8006C15.8912 1.43489 15.9579 2.87477 16.0008 4.30512C16.0437 5.73547 16.0676 7.37083 16.0676 9.21598V13.7454C16.0676 15.5858 16.0437 17.2259 16.0008 18.6563C15.9532 20.0914 15.8912 21.4931 15.8006 22.871C16.1772 22.8281 16.5873 22.8043 17.0307 22.8043H20.0296C20.4731 22.8043 20.8831 22.8281 21.2597 22.871C21.1501 21.2547 21.0786 19.6146 21.0452 17.9602C21.0118 16.3057 20.9975 14.6465 20.9975 12.9826H22.6949C23.9345 12.9826 25.0788 12.8491 26.1229 12.5821C27.1671 12.3151 28.0682 11.9003 28.8358 11.3329C29.6034 10.7655 30.1994 10.0265 30.619 9.11586C31.0433 8.2052 31.2531 7.11337 31.2531 5.8499C31.2531 4.84865 31.0862 3.99521 30.7525 3.2848C30.4187 2.5744 29.8991 1.93074 29.1886 1.35383C28.6785 0.910425 27.9776 0.571909 27.0908 0.338286C26.2088 0.10943 24.9834 -0.00976562 23.4196 -0.00976562H37.17C37.1523 -0.00218113 37.1333 0.00272222 37.1136 0.0077878C37.0962 0.0122753 37.0783 0.0168902 37.0603 0.0236092C36.164 0.333518 35.3678 0.786462 34.6812 1.38721C33.9898 1.98795 33.4415 2.73174 33.0315 3.61855C32.6215 4.51014 32.4165 5.53045 32.4165 6.68426C32.4165 7.94774 32.6596 8.98713 33.1507 9.79766C33.637 10.6082 34.2473 11.2948 34.9816 11.8478C35.7158 12.4057 36.512 12.8777 37.3798 13.2639C38.2475 13.6548 39.0437 14.0553 39.778 14.4654C40.5075 14.8754 41.1177 15.3474 41.6088 15.8814C42.0999 16.4154 42.3431 17.102 42.3431 17.9459C42.3431 18.8804 42.0284 19.6766 41.3943 20.3441C40.7649 21.0116 39.778 21.3453 38.4478 21.3453C37.7803 21.3453 37.1843 21.2547 36.6503 21.064C36.1211 20.8781 35.6634 20.6159 35.2867 20.2821C34.9053 19.9484 34.5954 19.5669 34.3522 19.1331C34.1043 18.6992 33.9422 18.2415 33.8516 17.7504H33.2175C33.103 18.5037 32.9743 19.2046 32.817 19.8482C32.6596 20.4919 32.4737 21.2023 32.2496 21.9795C32.7407 22.3561 33.4559 22.6708 34.3999 22.9283C35.3439 23.1809 36.4167 23.3097 37.6134 23.3097C38.9436 23.3097 40.1499 23.138 41.2274 22.7948C42.3049 22.4515 43.2299 21.9508 44.0071 21.2977ZM21.0214 6.64135C21.0309 5.10135 21.0452 3.52796 21.069 1.93074H21.0738C21.1644 1.9069 21.2645 1.89737 21.3742 1.89737H22.4755C22.9428 1.89737 23.391 1.97365 23.8248 2.13099C24.2587 2.28356 24.6354 2.53625 24.9596 2.87954C25.2838 3.22282 25.5365 3.6853 25.7272 4.26221C25.9131 4.83912 26.0085 5.54952 26.0085 6.39343C26.0085 7.46142 25.8512 8.31486 25.5413 8.95852C25.2266 9.60218 24.8261 10.098 24.3398 10.4413C23.8487 10.7846 23.3099 11.0135 22.7235 11.1231C22.1323 11.2328 21.5601 11.29 21.0071 11.29C21.0071 9.73567 21.0118 8.18613 21.0214 6.64135ZM4.37211 0.0331448C3.47575 0.343054 2.67953 0.800765 1.99296 1.39674C1.30162 1.99749 0.753324 2.74127 0.343291 3.62809C0.205024 3.92846 0.0905958 4.24314 7.08504e-06 4.57212V-0.00022997H4.48176C4.46407 0.00735443 4.44503 0.0122578 4.42536 0.0173233C4.40794 0.0218109 4.39002 0.0264257 4.37211 0.0331448ZM44.661 3.32346C44.7326 3.08753 44.7977 2.87281 44.8557 2.67929V2.68406C44.9988 2.20727 45.1704 1.71142 45.3707 1.20126C44.727 0.686337 43.9594 0.290608 43.0583 -0.00022997H46V13.3831C45.9094 13.1685 45.8093 12.9635 45.6901 12.7728C45.1895 11.9623 44.5601 11.2757 43.8068 10.7083C43.0535 10.1457 42.243 9.66892 41.3752 9.27796C40.5075 8.89177 39.6969 8.48174 38.9436 8.06217C38.1855 7.6426 37.561 7.16581 37.0603 6.64612C36.5597 6.12166 36.3118 5.43033 36.3118 4.62933C36.3118 3.82834 36.636 3.13223 37.2797 2.53149C37.9233 1.93074 38.7577 1.63037 39.778 1.63037C41.7519 1.63037 43.0964 2.5887 43.8068 4.49583H44.3074C44.4377 4.0596 44.5563 3.66881 44.661 3.32346ZM7.08504e-06 20.3584C0.0476854 20.182 0.0905958 20.0151 0.128738 19.8482L0.123971 19.8578C0.281309 19.2141 0.414808 18.5132 0.524468 17.7599H1.15859C1.24918 18.251 1.41605 18.7087 1.65921 19.1426C1.90714 19.5765 2.21705 19.9579 2.59371 20.2916C2.97036 20.6254 3.42331 20.8876 3.9573 21.0736C4.4913 21.2595 5.08728 21.3549 5.75477 21.3549C7.085 21.3549 8.06717 21.0211 8.70129 20.3536C9.33541 19.6861 9.65009 18.8899 9.65009 17.9554C9.65009 17.1115 9.40216 16.4249 8.91584 15.8909C8.42953 15.3569 7.81924 14.8849 7.085 14.4749C6.35075 14.0601 5.55453 13.6644 4.68678 13.2734C3.81904 12.8824 3.02281 12.4104 2.28856 11.8574C1.55909 11.2995 0.944037 10.6177 0.457718 9.80719C0.267005 9.49251 0.114435 9.1397 7.08504e-06 8.7535V20.3584ZM30.8574 39.8731C30.9003 39.8731 30.9527 39.8684 30.9909 39.8397H30.9861C30.9957 39.6967 30.8622 39.3773 30.7143 39.3773C30.6142 39.3773 30.5427 39.5108 30.4378 39.711C30.5999 39.8159 30.7573 39.8731 30.8574 39.8731ZM30.1816 39.5554C30.2947 39.3564 30.4563 39.0721 30.7191 39.0721L30.7287 39.0674C31.0243 39.0674 31.2817 39.4202 31.2817 39.7873C31.2817 40.0209 31.1625 40.183 30.9337 40.183C30.7716 40.183 30.5284 40.1163 30.2948 39.9542C30.1708 40.102 30.0182 40.1449 29.7989 40.1449H29.4843C29.3603 40.1449 29.2792 40.1163 29.2173 40.0734C29.1076 40.3785 28.7548 40.636 28.2542 40.7218L28.0825 40.4882L28.1016 40.4596C28.669 40.3547 28.9264 40.121 29.0075 39.8922C28.9503 39.7444 28.8549 39.5489 28.7643 39.3677L28.9932 39.115H29.0265C29.0933 39.3057 29.16 39.4774 29.1934 39.5632C29.2792 39.7921 29.3364 39.8302 29.551 39.8302H29.8657C30.0039 39.8302 30.0564 39.7825 30.147 39.6157C30.158 39.5968 30.1695 39.5766 30.1816 39.5554ZM27.272 40.1449C27.9204 40.1449 28.1493 39.9351 28.1493 39.6443L28.154 39.649C28.154 39.4583 28.0539 39.2438 27.4722 38.8576L28.2398 38.4523L28.3447 38.0661L28.3209 38.0518L27.2434 38.6383L27.1623 39.0197L27.1766 39.0387C27.5485 39.2771 27.8966 39.5155 27.8966 39.7253C27.8155 39.7778 27.558 39.8302 27.2577 39.8302H25.4888C25.2743 39.8302 25.217 39.7921 25.1312 39.5632L25.1312 39.5632C25.0978 39.4773 25.0311 39.3057 24.9643 39.115H24.931L24.7021 39.3677C24.7927 39.5489 24.8881 39.7396 24.9453 39.8922C24.8642 40.121 24.6068 40.3547 24.0394 40.4596L24.0203 40.4882L24.192 40.7218C24.6926 40.636 25.0454 40.3785 25.1551 40.0734C25.217 40.1163 25.2981 40.1449 25.4221 40.1449H27.272ZM24.6449 38.5715L24.9453 38.7813L25.1312 38.5L24.8309 38.295L24.6449 38.5715ZM23.3051 37.9612L23.2813 37.9469V37.9422L22.9857 38.0184V40.1544L23.0095 40.1687L23.3051 40.1067V37.9612ZM22.5804 37.9612L22.5518 37.9469L22.5614 37.9422L22.2705 38.0184V39.5298C22.2705 39.6443 22.261 39.7253 22.2467 39.7778C22.1752 39.8254 22.0655 39.8302 21.9654 39.8302H21.7079C21.5315 39.8302 21.4123 39.7921 21.3313 39.7539C21.3599 39.6538 21.3742 39.5346 21.3742 39.3916C21.3742 39.3432 21.3701 39.2907 21.3657 39.2342L21.3646 39.2199L21.3408 39.2104L21.0357 39.3248C21.0452 39.4059 21.05 39.4917 21.05 39.5537C21.05 39.6729 21.0309 39.7492 21.0118 39.7921C20.9641 39.8207 20.8831 39.835 20.8116 39.835C20.7353 39.835 20.6542 39.8207 20.5827 39.8016C20.6292 39.69 20.6712 39.5604 20.7218 39.4037L20.7258 39.3916L20.7114 39.3773L20.392 39.4297C20.3881 39.4434 20.3842 39.4569 20.3804 39.4704C20.3374 39.6216 20.2987 39.7574 20.268 39.7968C20.2347 39.8207 20.1775 39.8302 20.125 39.8302C20.0106 39.8302 19.8675 39.8016 19.7722 39.7682C19.8135 39.6893 19.846 39.5955 19.8836 39.4869C19.8937 39.4578 19.9041 39.4276 19.9152 39.3963L19.9009 39.382L19.5576 39.4345C19.5195 39.5918 19.4813 39.7253 19.448 39.7825C19.3812 39.8207 19.2668 39.835 19.0618 39.835H17.5218C17.3072 39.835 17.25 39.7968 17.1642 39.568L17.1641 39.5679C17.1308 39.482 17.064 39.3104 16.9973 39.1198H16.9639L16.7351 39.3725L16.7351 39.3726C16.8257 39.5537 16.921 39.7444 16.9782 39.897C16.8972 40.1258 16.6397 40.3594 16.0724 40.4643L16.0533 40.4929L16.2249 40.7266C16.7255 40.6407 17.0784 40.3833 17.188 40.0781C17.25 40.121 17.3311 40.1497 17.455 40.1497H18.995C19.2906 40.1497 19.467 40.1067 19.591 40.0066C19.6911 40.0781 19.8723 40.1497 20.0869 40.1497C20.2156 40.1497 20.3109 40.1163 20.3872 40.0638C20.4921 40.1163 20.6161 40.1497 20.7734 40.1497C20.9308 40.1497 21.069 40.1067 21.1692 40.0114C21.3027 40.1115 21.4886 40.1497 21.6269 40.1497H21.8843C22.3134 40.1497 22.5804 40.0209 22.5804 39.506V37.9612ZM20.9165 38.6192L20.6256 38.4189L20.4445 38.6907L20.7353 38.8909L20.9165 38.6192ZM19.9867 38.6907L20.2776 38.8909H20.2823L20.4588 38.6192L20.1679 38.4189L19.9867 38.6907ZM20.1679 38.2807L20.4588 38.4857L20.6399 38.2091L20.3491 38.0137L20.1679 38.2807ZM15.2427 39.835C15.7052 39.835 15.8483 39.8254 15.9532 39.7778C15.977 39.7396 15.9961 39.6776 15.9961 39.6109C15.9961 39.4917 15.8959 39.3296 15.7481 39.3296C15.5717 39.3296 15.3 39.5346 14.9805 39.835H15.2427ZM12.034 39.63V39.587V39.5823V39.177C11.7718 39.2533 11.5811 39.3725 11.5429 39.4917C11.5763 39.5966 11.7384 39.6443 11.8624 39.6443C11.9243 39.6443 11.9816 39.6395 12.034 39.63ZM15.7863 39.0292C16.0724 39.0292 16.2678 39.301 16.2678 39.5632C16.2663 39.7518 16.1716 39.9072 16.0676 39.9971C15.9007 40.1306 15.6671 40.1544 15.2189 40.1544H12.6157C12.3725 40.1544 12.1913 40.0924 12.096 39.916C12.0054 39.9446 11.9243 39.9542 11.8338 39.9542C11.4905 39.9542 11.2807 39.8064 11.2807 39.5727C11.2807 39.3248 11.5429 39.0292 12.034 38.8719V38.7193L12.3248 38.6049H12.3487V39.587C12.3487 39.8016 12.444 39.8397 12.6967 39.8397H14.6229L14.6373 39.8267C14.6841 39.7841 14.727 39.7452 14.766 39.7062V38.0327L15.0568 37.9565L15.0759 37.9708V39.4202C15.3667 39.1675 15.5908 39.0292 15.7863 39.0292ZM16.2678 39.5584V39.5632C16.2678 39.5616 16.2678 39.56 16.2678 39.5584ZM11.4333 38.1805L11.7241 38.3808L11.9005 38.109L11.6097 37.9088L11.4333 38.1805ZM12.0674 37.9088L11.8862 38.1805L12.177 38.3808L12.3582 38.109L12.0674 37.9088ZM10.2413 37.966L10.2175 37.9517V37.9469L9.92185 38.0232V40.1592L9.94569 40.1735L10.2413 40.1115V37.966ZM9.51659 37.966L9.48798 37.9517L9.49275 37.9422L9.20191 38.0184V39.5298C9.20191 39.6443 9.19238 39.7253 9.17807 39.7778C9.10656 39.8254 8.9969 39.8302 8.89677 39.8302H8.63454C8.4486 39.8302 8.38661 39.7873 8.26265 39.5251C8.21497 39.4297 7.99088 38.9196 7.90506 38.7193H7.87646L7.64283 38.9768C7.74363 39.1568 7.88792 39.4401 7.97924 39.6193C8.00886 39.6775 8.03292 39.7247 8.0481 39.7539C7.93367 39.8207 7.72389 39.8493 7.54748 39.8493C7.47596 39.8493 7.31385 39.8445 7.20896 39.8207L7.19466 39.835L7.15175 40.1353C7.26617 40.164 7.44735 40.1735 7.51887 40.1735C7.81924 40.1735 8.0481 40.1115 8.1816 39.9923C8.26742 40.121 8.38185 40.1544 8.55826 40.1544H8.82049C9.24959 40.1544 9.51659 40.0257 9.51659 39.5108V37.966ZM7.59515 38.1805L7.89553 38.3903L8.08147 38.109L7.7811 37.904L7.59515 38.1805ZM7.03769 38.0568L7.03732 38.0566L7.04685 38.0518L7.03769 38.0568ZM7.06116 38.0709L7.03769 38.0568L5.96933 38.6383L5.88827 39.0197L5.90258 39.0387C6.27447 39.2771 6.62252 39.5155 6.62252 39.7253C6.54147 39.7778 6.284 39.8302 5.98363 39.8302H4.21953C3.99074 39.8302 3.77376 39.7653 3.53375 39.6935C3.46867 39.674 3.40189 39.6541 3.33272 39.6347L3.24213 39.9351C3.60448 40.0305 3.73321 40.0924 3.73321 40.183C3.65693 40.3261 3.26597 40.431 2.82733 40.431C2.30763 40.431 2.15506 40.2402 2.15506 39.9494C2.15506 39.8684 2.1646 39.7873 2.18844 39.6633L2.15983 39.649L1.8976 39.7396C1.86899 39.835 1.84516 39.9685 1.84516 40.0972C1.84516 40.4691 2.14076 40.7504 2.76058 40.7504C3.45668 40.7504 3.96207 40.5358 4.00975 40.1544H5.99316C6.64159 40.1544 6.87044 39.9446 6.87044 39.6538C6.87044 39.4631 6.77032 39.2485 6.18865 38.8623L6.95627 38.4571L7.06116 38.0709ZM3.21829 41.1938L2.92745 40.9936L2.74627 41.2653L3.03711 41.4656L3.21829 41.1938ZM2.46347 40.9958L2.46497 40.9936H2.4602L2.46347 40.9958ZM2.46347 40.9958L2.2838 41.2653L2.57463 41.4656L2.75104 41.1938L2.46347 40.9958ZM30.9766 43.3012V41.9614L30.9813 41.9519H31.2865V43.7589H30.9384L30.2423 42.7338C30.2331 42.7203 30.2237 42.7068 30.2141 42.693C30.1595 42.6143 30.101 42.5301 30.0564 42.4287V43.7637H29.7465V41.9567H30.085L30.8145 43.0342C30.8286 43.0559 30.8425 43.0767 30.856 43.0969C30.9018 43.1653 30.9435 43.2276 30.9766 43.3012ZM28.011 42.8578C28.011 43.263 28.1826 43.5396 28.5498 43.5396C28.9216 43.5396 29.1028 43.2773 29.1028 42.8721C29.1028 42.4668 28.9455 42.1903 28.5688 42.1903C28.1922 42.1903 28.011 42.4525 28.011 42.8578ZM29.4318 42.8721C29.4318 43.5253 29.017 43.8066 28.5498 43.8066C27.9776 43.8066 27.682 43.4156 27.682 42.8625C27.682 42.2094 28.1016 41.9281 28.5688 41.9281C29.141 41.9281 29.4318 42.319 29.4318 42.8721ZM27.3721 43.7684H27.0527V41.9614H27.3721V43.7684ZM25.2981 41.9614H26.819V42.2332H26.2231V43.7684H25.9036V42.2332H25.2981V41.9614ZM24.5639 42.257L24.2921 43.0342H24.8356L24.5639 42.257ZM24.3731 41.9614H24.7641L25.4316 43.7494V43.7684H25.0978L24.9262 43.2869H24.2015L24.0346 43.7684H23.7104V43.7494L24.3731 41.9614ZM22.3182 41.9614H23.8391V42.2332H23.2432V43.7684H22.9237V42.2332H22.3182V41.9614ZM22.1513 43.2726C22.1513 43.6302 21.8653 43.8066 21.46 43.8066L21.4648 43.8113C21.1787 43.8113 20.9546 43.7303 20.7877 43.6016L20.9355 43.3775C21.1119 43.5014 21.3027 43.5443 21.4505 43.5443C21.6889 43.5443 21.8271 43.4633 21.8271 43.2917C21.8271 43.1439 21.7413 43.0819 21.4457 42.977L21.3932 42.9579C21.0929 42.8435 20.864 42.7386 20.864 42.4191C20.864 42.0806 21.1882 41.9328 21.4981 41.9328C21.7032 41.9328 21.9225 41.99 22.118 42.1235L21.9749 42.3476C21.8128 42.2475 21.6745 42.1951 21.4934 42.1951C21.3122 42.1951 21.1835 42.2666 21.1835 42.4096C21.1835 42.5193 21.2597 42.586 21.5363 42.6861L21.5935 42.7052C21.8605 42.8006 22.1513 42.915 22.1513 43.2726ZM19.0761 42.9817V43.511L19.0809 43.5062H19.9438V43.7732H18.7662V41.9662H19.9295V42.2284H19.0809V42.7243H19.8151L19.777 42.9817H19.0761ZM18.5278 43.6349C18.3418 43.7398 18.1654 43.8113 17.927 43.8113V43.8066C17.3263 43.8066 17.0784 43.4252 17.0784 42.8769C17.0784 42.1712 17.4884 41.9281 17.9223 41.9281C18.1607 41.9281 18.3418 41.99 18.5182 42.0949L18.3895 42.3333C18.2846 42.2666 18.1368 42.1998 17.9413 42.1998C17.5695 42.1998 17.4169 42.4621 17.4169 42.8625C17.4169 43.2869 17.6028 43.5396 17.9556 43.5396C18.1511 43.5396 18.2799 43.4776 18.4038 43.4061L18.5278 43.6349ZM16.7589 43.7684H16.4395V41.9614H16.7589V43.7684ZM15.3476 41.9614V43.4919H16.2059V43.7684H15.0282V41.9614H15.3476ZM13.2927 42.8578C13.2927 43.263 13.4644 43.5396 13.8315 43.5396C14.2034 43.5396 14.3845 43.2773 14.3845 42.8721C14.3845 42.4668 14.2272 42.1903 13.8505 42.1903C13.4739 42.1903 13.2927 42.4525 13.2927 42.8578ZM14.7135 42.8721C14.7135 43.5253 14.2987 43.8066 13.8315 43.8066C13.2593 43.8066 12.9637 43.4156 12.9637 42.8625C12.9637 42.2094 13.3833 41.9281 13.8505 41.9281C14.4227 41.9281 14.7135 42.319 14.7135 42.8721ZM11.7908 42.8721H12.0435C12.3058 42.8721 12.444 42.7624 12.444 42.5383C12.444 42.3333 12.3201 42.2284 12.0817 42.2284H11.7908V42.8721ZM11.4714 41.9662H12.0864C12.5489 41.9662 12.773 42.195 12.773 42.5288C12.773 42.8625 12.5442 43.1343 12.0721 43.1343H11.7908V43.7732H11.4714V41.9662ZM9.04457 41.9662H10.5655V42.238H9.96953V43.7732H9.65009V42.238H9.04457V41.9662ZM8.18637 42.2284H7.90983V42.8387H8.14822C8.40092 42.8387 8.53918 42.7338 8.53918 42.524C8.53918 42.3286 8.41522 42.2284 8.18637 42.2284ZM8.86817 42.5145C8.86817 42.7624 8.73467 42.9722 8.45813 43.0533L8.97306 43.7541V43.7732H8.61547L8.12915 43.0914H7.90983V43.7732H7.59039V41.9662H8.18637C8.64408 41.9662 8.86817 42.1998 8.86817 42.5145ZM6.48902 42.2618L6.21725 43.039H6.76079L6.48902 42.2618ZM6.29831 41.9662H6.68927L7.35676 43.7541V43.7732H7.02302L6.85137 43.2917H6.12666L5.95979 43.7732H5.63558V43.7541L6.29831 41.9662ZM4.64387 42.7624L5.05867 41.9662H5.39719V43.7732H5.08251V42.505C5.05867 42.5717 5.0253 42.6528 4.96808 42.7624L4.58666 43.511H4.31489L3.93823 42.7624C3.87625 42.6528 3.83811 42.5717 3.81427 42.5002V43.7732H3.50913V41.9662H3.85241L4.26244 42.7624C4.33873 42.9198 4.41501 43.0771 4.45316 43.1963C4.4913 43.0771 4.56758 42.915 4.64387 42.7624ZM3.20399 43.2773C3.20399 43.6349 2.91792 43.8113 2.51265 43.8113L2.50788 43.8161C2.22181 43.8161 1.99773 43.7351 1.83085 43.6063L1.97865 43.3822C2.15506 43.5062 2.34578 43.5491 2.49358 43.5491C2.73674 43.5491 2.87501 43.4681 2.87501 43.2964C2.87501 43.1486 2.78918 43.0866 2.49358 42.9817L2.44113 42.9627C2.14553 42.8482 1.9119 42.7434 1.9119 42.4239C1.9119 42.0854 2.23135 41.9376 2.54603 41.9376C2.75104 41.9376 2.96559 41.9948 3.16584 42.1283L3.02281 42.3524C2.8607 42.2523 2.72244 42.1998 2.54126 42.1998C2.36008 42.1998 2.23135 42.2713 2.23135 42.4144C2.23135 42.524 2.30763 42.5908 2.58417 42.6909L2.64138 42.71C2.91315 42.8053 3.20399 42.9198 3.20399 43.2773ZM36.3642 41.17H40.8937C41.1988 41.17 41.2942 40.9697 41.2942 40.9697H35.9637C35.9637 40.9697 36.0591 41.17 36.3642 41.17ZM36.7933 41.5943H40.4693C40.7745 41.5943 40.8698 41.3941 40.8698 41.3941H36.3928C36.3928 41.3941 36.4882 41.5943 36.7933 41.5943ZM37.4894 42.0186H39.7732C40.0736 42.0186 40.1737 41.8184 40.1737 41.8184H37.0889C37.0889 41.8184 37.1843 42.0186 37.4894 42.0186ZM39.2583 42.2427H38.0044C38.0044 42.2427 38.0997 42.443 38.4049 42.443H38.8578C39.1629 42.443 39.2583 42.2427 39.2583 42.2427ZM40.1092 38.8404C38.7282 38.3048 37.1438 38.3821 35.7969 39.1198C36.0448 37.0792 37.5085 35.4057 39.4204 34.8526C38.8821 36.1626 39.1054 37.7249 40.1092 38.8404ZM40.436 39.4249L40.5504 39.2676C39.8304 38.8862 39.0533 38.7002 38.2809 38.6955V39.4249H40.436ZM37.9615 38.705C37.1462 38.7527 36.3547 38.9958 35.6634 39.4249H37.9615V38.705ZM35.5585 39.5632V39.4249C35.6824 37.0553 37.4418 35.0242 39.778 34.557C38.9579 36.0159 39.2583 37.966 40.6648 39.1055H42.0046V39.4917H41.7566C41.5421 39.897 41.4086 40.1401 41.1368 40.5454H41.585C41.585 40.5454 41.4896 40.7456 41.1845 40.7456H36.0591C35.7539 40.7456 35.6586 40.5454 35.6586 40.5454H36.1497C35.8064 40.0448 35.6014 39.649 35.5585 39.5632ZM43.2919 40.1258C43.1012 40.3213 43.0153 40.5072 43.0153 40.6884C43.1965 40.6836 43.3825 40.5931 43.5684 40.3976C43.7257 40.2355 43.8211 40.0352 43.8449 39.835C43.6447 39.8636 43.4492 39.9637 43.2919 40.1258ZM43.1298 41.4084C43.3157 41.2844 43.4492 41.108 43.516 40.9173H43.5112C43.311 40.9077 43.0964 40.965 42.9105 41.0889C42.6864 41.2367 42.5624 41.4036 42.5243 41.58C42.7054 41.6086 42.9057 41.5609 43.1298 41.4084ZM41.852 42.3476C42.0189 42.4191 42.2239 42.4096 42.4766 42.3095C42.6864 42.2237 42.8532 42.0806 42.9581 41.909C42.7626 41.8565 42.5433 41.8661 42.3335 41.9471C42.0809 42.0472 41.9283 42.1807 41.852 42.3476ZM41.0367 42.9579C41.1845 43.0628 41.3895 43.0962 41.6565 43.0533C41.8806 43.0151 42.0761 42.9102 42.2144 42.7624C42.0332 42.6671 41.8186 42.6289 41.5945 42.6671C41.3275 42.7147 41.1464 42.8101 41.0367 42.9579ZM40.1117 43.3822C40.2357 43.5157 40.4264 43.592 40.6982 43.6063C40.927 43.6159 41.1368 43.5539 41.3037 43.4395C41.1464 43.3107 40.9413 43.2249 40.7173 43.2154C40.4455 43.2058 40.25 43.263 40.1117 43.3822ZM39.12 43.6063C39.2106 43.7589 39.3823 43.8733 39.6445 43.9448C39.8638 44.0021 40.0831 43.9878 40.2691 43.9115C40.1451 43.7541 39.9639 43.6302 39.7446 43.573C39.4824 43.5014 39.2774 43.5157 39.12 43.6063ZM39.8972 42.524C39.6969 42.5526 39.4967 42.648 39.3394 42.8101C39.1486 43.0008 39.058 43.1868 39.058 43.3679C39.2392 43.3632 39.4252 43.2726 39.6159 43.0819C39.7732 42.9245 39.8686 42.7243 39.8972 42.524ZM40.6457 42.1664C40.455 42.238 40.2834 42.3715 40.1594 42.5622C40.0164 42.791 39.9687 42.9913 40.0021 43.1677C40.1785 43.1248 40.3406 43.0008 40.4884 42.772C40.6076 42.5812 40.66 42.3667 40.6457 42.1664ZM41.3037 41.6563C41.1321 41.7659 40.9938 41.9376 40.9127 42.1474C40.8174 42.4001 40.8126 42.6051 40.8841 42.772C41.0462 42.6909 41.1797 42.5336 41.2751 42.2809C41.3561 42.0711 41.3609 41.8518 41.3037 41.6563ZM41.8377 41.0222C41.6947 41.1652 41.5945 41.3607 41.5612 41.5848C41.523 41.8565 41.5612 42.0568 41.666 42.2046C41.8091 42.0902 41.9044 41.909 41.9426 41.642C41.976 41.4179 41.933 41.1986 41.8377 41.0222ZM42.4623 40.8696C42.448 40.6455 42.3622 40.4405 42.2287 40.2879C42.119 40.4548 42.0618 40.6693 42.0761 40.8934C42.0952 41.1652 42.1762 41.3511 42.3097 41.4751C42.4241 41.3368 42.4813 41.1414 42.4623 40.8696ZM42.6816 37.2699C42.5004 37.1316 42.2906 37.0601 42.0904 37.0601V37.0649C42.1428 37.2556 42.262 37.4415 42.4432 37.5798C42.6578 37.7467 42.8532 37.8087 43.0344 37.7896C43.0106 37.6084 42.8961 37.4368 42.6816 37.2699ZM42.2573 36.4498C42.0522 36.3545 41.8377 36.3306 41.6374 36.3688H41.6422C41.7328 36.5452 41.8901 36.7025 42.0952 36.7979C42.3383 36.9171 42.5433 36.9361 42.715 36.8789C42.6482 36.712 42.5004 36.5642 42.2573 36.4498ZM41.6804 35.7299C41.461 35.6774 41.2417 35.7013 41.0558 35.7823C41.1845 35.9349 41.3704 36.0541 41.5898 36.1065C41.852 36.1685 42.057 36.1494 42.2144 36.0541C42.119 35.9015 41.9426 35.7919 41.6804 35.7299ZM40.3597 35.3341C40.517 35.4581 40.7268 35.5392 40.9509 35.5392C41.2226 35.5439 41.4181 35.482 41.5516 35.358C41.4229 35.2293 41.2322 35.1577 40.9604 35.153C40.7316 35.1482 40.5265 35.215 40.3597 35.3341ZM40.0593 34.3186C40.1356 34.5045 40.2738 34.6762 40.4693 34.7906V34.7954C40.7029 34.9384 40.9032 34.9766 41.0796 34.9384C41.0319 34.762 40.9032 34.5999 40.6696 34.4616C40.4741 34.3424 40.2595 34.2995 40.0593 34.3186ZM41.5564 34.5427C41.4467 34.3424 41.2846 34.1994 41.0987 34.1136C41.0748 34.3138 41.1082 34.5284 41.2179 34.7286C41.3466 34.967 41.4992 35.1053 41.6756 35.1577C41.7233 34.9813 41.6851 34.7811 41.5564 34.5427ZM42.3955 35.2626C42.3288 35.0481 42.2 34.8669 42.0379 34.7477V34.7525C41.9664 34.9384 41.9569 35.1625 42.0236 35.3771C42.0999 35.6345 42.2239 35.8014 42.3812 35.892C42.4623 35.7299 42.4718 35.5201 42.3955 35.2626ZM43.063 36.1494C43.0487 35.9254 42.9581 35.7251 42.8246 35.5725C42.715 35.7442 42.6578 35.9587 42.6768 36.1828C42.6959 36.4498 42.777 36.6405 42.9152 36.7597C43.0344 36.6167 43.0869 36.4212 43.063 36.1494ZM42.386 37.8611C42.4003 38.0661 42.4766 38.2711 42.6244 38.4428C42.8008 38.6478 42.9772 38.7527 43.1584 38.7718C43.1679 38.5906 43.0964 38.3951 42.92 38.1901C42.7722 38.0184 42.5815 37.9088 42.386 37.8611ZM42.7829 40.6577C42.6273 40.5666 42.5094 40.4003 42.4337 40.1401C42.3717 39.9208 42.386 39.7015 42.4575 39.5155C42.6196 39.6395 42.7436 39.8159 42.8056 40.0352C42.8815 40.2963 42.8677 40.5006 42.7829 40.6577ZM42.5052 38.6859C42.4766 38.8862 42.51 39.1007 42.6148 39.301V39.3057C42.7436 39.5441 42.8962 39.6824 43.0678 39.7396C43.1155 39.5632 43.0869 39.3582 42.9581 39.1198C42.8485 38.9196 42.6911 38.7718 42.5052 38.6859ZM43.4158 36.5452C43.2728 36.6882 43.1727 36.8837 43.1441 37.1078V37.1125C43.1107 37.3795 43.1488 37.5798 43.2585 37.7276C43.4015 37.6132 43.4921 37.4272 43.5303 37.1602C43.5589 36.9361 43.516 36.7216 43.4158 36.5452ZM43.7734 38.2425C43.8497 38.0327 43.8497 37.8134 43.7925 37.6179C43.6209 37.7324 43.4826 37.8992 43.4063 38.1138C43.3157 38.3665 43.311 38.5715 43.3872 38.7384C43.5541 38.6573 43.6828 38.5 43.7734 38.2425ZM43.783 39.3534C43.9069 39.1579 43.9546 38.9434 43.9355 38.7431C43.7448 38.8194 43.5732 38.9577 43.454 39.1484C43.311 39.382 43.2633 39.5823 43.3014 39.7587C43.4778 39.711 43.6399 39.5823 43.783 39.3534ZM37.3512 42.5622C37.3798 42.7624 37.4751 42.9579 37.6325 43.12C37.8232 43.3107 38.0091 43.4061 38.1903 43.4061C38.1903 43.2249 38.0997 43.039 37.909 42.8482C37.7517 42.6861 37.5514 42.5908 37.3512 42.5622ZM36.9745 43.9448C37.1605 44.0211 37.3798 44.0354 37.5991 43.9782C37.8566 43.9115 38.0282 43.797 38.1236 43.6397C37.9662 43.5539 37.7612 43.5348 37.499 43.6063C37.2797 43.6635 37.0985 43.7875 36.9745 43.9448ZM35.9399 43.4728C36.1068 43.5873 36.3213 43.6492 36.5454 43.6397C36.8172 43.6254 37.0079 43.5491 37.1318 43.4156C36.9936 43.2964 36.7981 43.2344 36.5263 43.2487C36.3022 43.263 36.0972 43.3441 35.9399 43.4728ZM35.0292 42.7958C35.1723 42.9436 35.363 43.0485 35.5871 43.0866C35.8541 43.1295 36.0591 43.0962 36.2069 42.9913C36.0972 42.8435 35.916 42.7434 35.6491 42.7004C35.425 42.6671 35.2104 42.7052 35.0292 42.7958ZM34.2855 41.9424C34.3903 42.114 34.5572 42.257 34.767 42.3429C35.0197 42.443 35.2247 42.4525 35.3916 42.381C35.3201 42.2141 35.1627 42.0806 34.91 41.9805C34.7003 41.8994 34.4809 41.8899 34.2855 41.9424ZM33.7324 40.9554C33.7991 41.1461 33.9326 41.3225 34.1186 41.4465H34.1138C34.3427 41.5991 34.5382 41.6515 34.7193 41.6181C34.6812 41.4417 34.5572 41.2796 34.3331 41.1271C34.1472 40.9983 33.9326 40.9459 33.7324 40.9554ZM33.3939 39.8684C33.4225 40.0686 33.5131 40.2689 33.6704 40.431C33.8563 40.6217 34.0423 40.717 34.2235 40.7218C34.2235 40.5406 34.1376 40.3547 33.9469 40.1592C33.7896 39.9971 33.5941 39.9017 33.3939 39.8684ZM33.7801 39.1436C33.6609 38.9482 33.4892 38.8099 33.2985 38.7384C33.2842 38.9434 33.3319 39.1579 33.4511 39.3487C33.5941 39.5823 33.7562 39.711 33.9326 39.7539C33.9708 39.5727 33.9231 39.3725 33.7801 39.1436ZM33.8325 38.109C33.7562 37.8945 33.6132 37.7228 33.4463 37.6132C33.3891 37.8039 33.3891 38.0232 33.4654 38.2378C33.5607 38.4952 33.6895 38.6526 33.8516 38.7336C33.9279 38.5715 33.9231 38.3617 33.8325 38.109ZM34.0995 37.1078C34.0709 36.8837 33.9708 36.6882 33.8277 36.5452V36.5404C33.7276 36.7168 33.6847 36.9314 33.7133 37.1555C33.7515 37.4272 33.842 37.6084 33.9851 37.7228C34.0947 37.5798 34.1376 37.3748 34.0995 37.1078ZM34.419 35.5773C34.2855 35.7299 34.1996 35.9301 34.1806 36.1542C34.1615 36.426 34.2139 36.6262 34.3284 36.7645C34.4619 36.6453 34.5429 36.4594 34.5668 36.1876C34.5811 35.9635 34.5286 35.749 34.419 35.5773ZM35.6014 36.3878C35.4059 36.3497 35.1866 36.3735 34.9816 36.4689C34.7384 36.5833 34.5906 36.7264 34.5286 36.898C34.7003 36.9552 34.9053 36.9314 35.1484 36.8169C35.3487 36.7216 35.506 36.569 35.6014 36.3878ZM35.2104 34.7572C35.0483 34.8764 34.9196 35.0576 34.8528 35.2722V35.2674C34.7765 35.5296 34.7813 35.7346 34.8671 35.8968C35.0245 35.8062 35.1484 35.6393 35.2247 35.3818C35.2915 35.1673 35.2819 34.948 35.2104 34.7572ZM36.1926 35.7966C36.0066 35.7156 35.7873 35.6917 35.568 35.7442C35.3058 35.8062 35.1341 35.9158 35.034 36.0684C35.1913 36.1637 35.3964 36.1828 35.6586 36.1208C35.8779 36.0684 36.0639 35.954 36.1926 35.7966ZM36.1497 34.1184C35.9637 34.2042 35.8016 34.3472 35.692 34.5475C35.5585 34.7858 35.5251 34.9861 35.5728 35.1625C35.7492 35.1101 35.9017 34.9718 36.0305 34.7334C36.1401 34.5379 36.1783 34.3186 36.1497 34.1184ZM37.1891 34.3281C36.9888 34.3091 36.7743 34.3567 36.5788 34.4712V34.4664C36.3452 34.6094 36.2164 34.7668 36.1687 34.9432C36.3452 34.9813 36.5454 34.9384 36.779 34.8001C36.9745 34.6857 37.1128 34.5141 37.1891 34.3281ZM36.2975 35.5487C36.5216 35.5439 36.7313 35.4676 36.8887 35.3437C36.7218 35.2245 36.512 35.1625 36.2879 35.1625C36.0162 35.1673 35.8255 35.2388 35.6967 35.3675C35.8302 35.4915 36.0257 35.5535 36.2975 35.5487ZM34.2044 37.8087C34.3856 37.8277 34.5811 37.7657 34.7956 37.5989V37.5941C34.972 37.4606 35.096 37.2747 35.1484 37.0792C34.9434 37.0839 34.7384 37.1507 34.5572 37.289C34.3427 37.4558 34.233 37.6275 34.2044 37.8087ZM34.7813 39.506C34.624 39.63 34.4952 39.8064 34.4333 40.0257C34.3617 40.2831 34.3713 40.4882 34.4571 40.6503C34.6144 40.5597 34.7289 40.3928 34.8051 40.1306C34.8671 39.916 34.8528 39.6967 34.7813 39.506ZM34.3236 38.1805C34.1472 38.3903 34.0757 38.581 34.0852 38.7622C34.2664 38.7431 34.4428 38.6383 34.6192 38.4332C34.767 38.2568 34.8433 38.0518 34.8576 37.8516C34.6573 37.8992 34.4714 38.0089 34.3236 38.1805ZM34.7336 38.6764C34.5477 38.7622 34.3856 38.91 34.2807 39.1103V39.1055C34.152 39.3487 34.1233 39.5489 34.171 39.7253C34.3474 39.6681 34.4952 39.5298 34.624 39.2914C34.7336 39.096 34.7622 38.8766 34.7336 38.6764ZM35.1627 40.9077C35.1818 40.6837 35.1198 40.4739 35.0102 40.3022C34.8767 40.4548 34.7908 40.6598 34.7765 40.8839C34.7575 41.1509 34.8099 41.3511 34.9291 41.4894C35.0626 41.3654 35.1437 41.1795 35.1627 40.9077ZM35.6777 41.5991C35.6491 41.375 35.5442 41.1795 35.4011 41.0365C35.3058 41.2176 35.2629 41.4322 35.2962 41.6563C35.3344 41.9233 35.4297 42.1092 35.5728 42.2189C35.6777 42.0711 35.7158 41.8661 35.6777 41.5991ZM36.3261 42.1617C36.245 41.9471 36.1068 41.7803 35.9351 41.6706C35.8779 41.8613 35.8827 42.0854 35.9637 42.2952C36.0591 42.5479 36.1878 42.71 36.3547 42.7863C36.4262 42.6194 36.4214 42.4144 36.3261 42.1617ZM37.0794 42.5765C36.9554 42.3858 36.7838 42.2523 36.5931 42.1807C36.5788 42.381 36.6265 42.5955 36.7504 42.7863C36.8982 43.0151 37.0603 43.1391 37.2367 43.182C37.2749 43.0056 37.2272 42.8053 37.0794 42.5765ZM44.0313 39.6395C44.0343 39.6395 44.0374 39.6395 44.0404 39.6395L44.0309 39.6347C44.031 39.6363 44.0312 39.6379 44.0313 39.6395ZM43.783 39.6538C43.8657 39.64 43.9485 39.6395 44.0313 39.6395C44.0584 39.9575 43.9438 40.294 43.6971 40.5502C43.6256 40.6217 43.5541 40.6837 43.4874 40.7313C43.5732 40.7361 43.659 40.7456 43.7401 40.7695C43.7019 41.0889 43.5207 41.3941 43.2204 41.5943C43.1345 41.6515 43.0535 41.6944 42.9772 41.7278C43.0583 41.7469 43.1393 41.7803 43.2156 41.8184C43.1107 42.1188 42.8675 42.381 42.5338 42.5145C42.4384 42.5479 42.3479 42.5765 42.2668 42.5908C42.3431 42.6289 42.4146 42.6766 42.4813 42.729C42.3145 43.0008 42.0236 43.2058 41.6708 43.263C41.5707 43.2821 41.4801 43.2821 41.3943 43.2821C41.461 43.3346 41.523 43.3965 41.5755 43.4633C41.3561 43.6922 41.0272 43.8352 40.6696 43.8161C40.5647 43.8113 40.4741 43.797 40.393 43.778C40.4455 43.8447 40.4932 43.9162 40.5313 43.9925C40.2643 44.1689 39.9163 44.2357 39.5682 44.1451C39.4013 44.1022 39.2678 44.0402 39.1629 43.9687C38.8149 43.7351 38.3715 43.7398 38.033 43.9687C37.9281 44.0402 37.7946 44.1022 37.6277 44.1451C37.2796 44.2404 36.9268 44.1737 36.6646 43.9925C36.7027 43.9162 36.7504 43.8447 36.8029 43.778C36.717 43.797 36.6265 43.8161 36.5263 43.8161C36.1687 43.8352 35.8398 43.6922 35.6204 43.4633C35.6729 43.3965 35.7349 43.3346 35.8016 43.2821C35.7158 43.2869 35.6252 43.2821 35.5251 43.263C35.1723 43.2058 34.8814 43.0008 34.7146 42.729C34.7813 42.6766 34.8528 42.6289 34.9291 42.5908C34.8433 42.5765 34.7575 42.5526 34.6621 42.5145C34.3284 42.381 34.0852 42.1188 33.9803 41.8184C34.0566 41.7803 34.1329 41.7469 34.2187 41.7278C34.1424 41.6944 34.0614 41.6515 33.9755 41.5943C33.6752 41.3941 33.494 41.0841 33.4559 40.7695C33.5369 40.7456 33.6227 40.7313 33.7085 40.7313C33.6418 40.6837 33.5703 40.6217 33.4988 40.5502C33.2508 40.2927 33.1364 39.9542 33.165 39.6347C33.2508 39.63 33.3367 39.6347 33.4225 39.649C33.3653 39.5871 33.308 39.5155 33.2556 39.4297C33.0649 39.1246 33.0267 38.7718 33.1221 38.4666C33.2079 38.4809 33.289 38.5048 33.37 38.5381C33.3271 38.4618 33.289 38.3808 33.2556 38.2854C33.1364 37.9469 33.1698 37.5893 33.3271 37.3128C33.4082 37.3414 33.4845 37.3843 33.556 37.432C33.5274 37.3509 33.5083 37.2603 33.494 37.1602C33.4463 36.8026 33.5607 36.4641 33.7705 36.2257C33.842 36.2734 33.9088 36.3306 33.966 36.3926C33.9612 36.3116 33.9565 36.2162 33.966 36.1161C33.9898 35.7585 34.171 35.4533 34.4285 35.2626C34.4905 35.3246 34.5429 35.3914 34.5858 35.4676C34.5954 35.3818 34.6144 35.2912 34.643 35.1959C34.7479 34.8526 34.9863 34.5904 35.2772 34.4569C35.3201 34.5284 35.3582 34.6047 35.3868 34.6857C35.4107 34.6047 35.4488 34.5236 35.4965 34.433C35.6729 34.1184 35.9637 33.9133 36.2736 33.8466C36.3356 34.0087 36.3547 34.1851 36.3356 34.3663C36.3738 34.3424 36.4167 34.3138 36.4596 34.2852C36.7695 34.0993 37.1223 34.0659 37.4275 34.166C37.3702 34.4807 37.1748 34.7763 36.8696 34.9623C36.8219 34.9909 36.779 35.0147 36.7361 35.0338C36.903 35.1005 37.0508 35.2006 37.1652 35.3294C36.9936 35.5344 36.7409 35.6774 36.4548 35.7251C36.3309 35.9587 36.1163 36.1494 35.8493 36.2543C35.7778 36.507 35.6061 36.7407 35.3678 36.898C35.3487 37.165 35.2343 37.4272 35.034 37.6322C35.0721 37.8945 35.0149 38.1758 34.8624 38.4189C34.9577 38.6669 34.9625 38.9529 34.8624 39.2247C35.0054 39.4488 35.0674 39.7253 35.0292 40.0114C35.2152 40.1973 35.3391 40.4596 35.3582 40.7456C35.5823 40.8887 35.7539 41.1175 35.835 41.3941C36.0829 41.4894 36.2975 41.6754 36.4357 41.9281C36.698 41.9662 36.9507 42.1045 37.1366 42.3238C37.4513 42.3047 37.7803 42.4239 38.033 42.6766C38.1951 42.8435 38.2904 43.0008 38.3381 43.1486C38.4144 43.4156 38.791 43.4156 38.8721 43.1486C38.9198 43.0008 39.0151 42.8435 39.1772 42.6814C39.4252 42.4287 39.7589 42.3095 40.0736 42.3285C40.2595 42.1092 40.5122 41.9757 40.7745 41.9328C40.9127 41.6801 41.1273 41.4942 41.3752 41.3988C41.4563 41.1223 41.6279 40.8934 41.852 40.7504C41.8711 40.4643 41.995 40.2021 42.181 40.0162C42.1428 39.7301 42.2048 39.4535 42.3479 39.2295C42.2525 38.9577 42.2573 38.6716 42.3479 38.4237C42.1953 38.1805 42.1381 37.8992 42.1762 37.637C41.976 37.4272 41.8615 37.165 41.8425 36.9028C41.6041 36.7454 41.4324 36.5118 41.3609 36.2591C41.0939 36.1542 40.8794 35.9635 40.7554 35.7299C40.4693 35.687 40.2166 35.5392 40.045 35.3341C40.1594 35.2054 40.3072 35.1053 40.4741 35.0385C40.4312 35.0195 40.3835 34.9956 40.3406 34.967C40.0307 34.7811 39.8352 34.4855 39.7828 34.1708C40.0879 34.0707 40.4455 34.104 40.7506 34.29C40.7935 34.3138 40.8365 34.3424 40.8746 34.371C40.8555 34.1899 40.8794 34.0135 40.9366 33.8514C41.2513 33.9181 41.5421 34.1231 41.7137 34.4378C41.7614 34.5284 41.7995 34.6094 41.8234 34.6905C41.852 34.6094 41.8854 34.5332 41.933 34.4616C42.2239 34.5951 42.4623 34.8574 42.5672 35.2006C42.6005 35.296 42.6148 35.3866 42.6244 35.4724C42.6673 35.3961 42.7197 35.3294 42.7817 35.2674C43.0344 35.4533 43.2156 35.7633 43.2442 36.1208C43.2537 36.221 43.2537 36.3116 43.2442 36.3974C43.3014 36.3306 43.3682 36.2782 43.4397 36.2305C43.6542 36.4689 43.7639 36.8074 43.7162 37.165C43.7019 37.2699 43.6828 37.3557 43.6542 37.4368C43.7257 37.3891 43.802 37.3462 43.8831 37.3176C44.0404 37.5989 44.0738 37.9517 43.9546 38.2902C43.9165 38.3856 43.8783 38.4714 43.8354 38.5429C43.9165 38.5095 43.9975 38.4857 44.0833 38.4714C44.1787 38.7765 44.1406 39.1293 43.9498 39.4345C43.8974 39.5203 43.8402 39.5918 43.783 39.6538Z" fill="white"/>
</g>
<defs>
<clipPath id="clip0_12_105">
<rect width="46" height="46" fill="white"/>
</clipPath>
</defs>
</svg>
