<svg width="91" height="91" viewBox="0 0 91 91" fill="none" xmlns="http://www.w3.org/2000/svg">
<g id="SPS" clip-path="url(#clip0_0_1348)">
<rect width="91" height="91" fill="white"/>
<path id="Subtract" fill-rule="evenodd" clip-rule="evenodd" d="M87.0574 42.1328C88.5948 40.8407 89.7833 39.2749 90.6133 37.4546V37.4451C90.7453 37.1339 90.8774 36.8226 90.9906 36.5019V90.9812H-0.00942993V44.0381C0.867747 44.538 1.99959 44.9813 3.36723 45.3492C5.23477 45.8491 7.34754 46.1037 9.7244 46.1037C12.3654 46.1037 14.7422 45.7642 16.8739 45.0851C19.0055 44.406 20.8353 43.4156 22.3727 42.1234C23.9101 40.8312 25.0986 39.2655 25.9286 37.4451C26.768 35.6248 27.183 33.6157 27.183 31.4181C27.183 28.9186 26.6926 26.8624 25.7022 25.259C24.7119 23.6555 23.4668 22.2973 21.9766 21.1749C20.4863 20.0619 18.8829 19.1187 17.1663 18.3453C15.4496 17.5813 13.8462 16.7702 12.3559 15.9402C10.8562 15.1101 9.62065 14.1669 8.63029 13.1389C7.63993 12.1013 7.14946 10.7337 7.14946 9.14911C7.14946 7.56454 7.79084 6.18746 9.06416 4.99903C10.3375 3.8106 11.9881 3.21638 14.0065 3.21638C17.9114 3.21638 20.5712 5.11221 21.9766 8.88502H22.9669C23.2248 8.02158 23.4594 7.24813 23.6667 6.56466C23.8081 6.09836 23.9369 5.67395 24.0516 5.29142C24.3346 4.34822 24.6741 3.36729 25.0703 2.35807C23.797 1.33941 22.2784 0.556554 20.4958 -0.0187988H31.2577C31.4369 2.8391 31.5689 5.68757 31.6538 8.51717C31.7387 11.3468 31.7859 14.5819 31.7859 18.2321V27.1925C31.7859 30.8333 31.7387 34.0779 31.6538 36.9075C31.5595 39.7465 31.4369 42.5196 31.2577 45.2454C32.0028 45.1605 32.814 45.1134 33.6911 45.1134H39.6239C40.501 45.1134 41.3122 45.1605 42.0573 45.2454C41.8404 42.048 41.6989 38.8033 41.6329 35.5304C41.5669 32.2575 41.5386 28.9752 41.5386 25.6834H44.8964C47.3487 25.6834 49.6124 25.4193 51.678 24.8911C53.7436 24.3629 55.5262 23.5424 57.0448 22.4199C58.5633 21.2975 59.7423 19.8356 60.5723 18.0341C61.4118 16.2326 61.8268 14.0726 61.8268 11.5731C61.8268 9.59242 61.4967 7.90409 60.8364 6.49872C60.1762 5.09335 59.1481 3.82003 57.7427 2.67876C56.7335 1.80158 55.347 1.13191 53.5927 0.669738C51.8477 0.217001 49.4237 -0.0187988 46.33 -0.0187988H73.5319C73.4969 -0.0037951 73.4593 0.00590489 73.4204 0.0159257C73.3859 0.0248034 73.3504 0.0339329 73.315 0.0472252C71.5418 0.660306 69.9666 1.55635 68.6084 2.74478C67.2408 3.93321 66.1561 5.40461 65.3449 7.15896C64.5338 8.92274 64.1282 10.9412 64.1282 13.2237C64.1282 15.7232 64.6092 17.7794 65.5807 19.3828C66.5428 20.9863 67.7501 22.3445 69.2026 23.4386C70.6552 24.5422 72.2303 25.4759 73.9469 26.2399C75.6636 27.0133 77.2387 27.8056 78.6912 28.6168C80.1343 29.4279 81.3416 30.3617 82.3131 31.4181C83.2846 32.4745 83.7656 33.8327 83.7656 35.5021C83.7656 37.3508 83.1431 38.926 81.8887 40.2464C80.6437 41.5669 78.6912 42.2272 76.0597 42.2272C74.7392 42.2272 73.5602 42.048 72.5038 41.6707C71.4569 41.3028 70.5514 40.7841 69.8063 40.1238C69.0517 39.4636 68.4386 38.709 67.9576 37.8507C67.4671 36.9924 67.1465 36.0869 66.9672 35.1154H65.7128C65.4864 36.6057 65.2318 37.9922 64.9205 39.2655C64.6093 40.5388 64.2414 41.9442 63.7981 43.4816C64.7696 44.2267 66.1844 44.8493 68.0519 45.3586C69.9195 45.8585 72.0417 46.1132 74.4091 46.1132C77.0406 46.1132 79.4269 45.7736 81.5586 45.0945C83.6902 44.4154 85.52 43.425 87.0574 42.1328ZM41.5857 13.1389C41.6046 10.0923 41.6329 6.97975 41.68 3.82003H41.6895C41.8687 3.77287 42.0667 3.754 42.2837 3.754H44.4625C45.3868 3.754 46.2734 3.90492 47.1317 4.21617C47.9901 4.518 48.7352 5.01789 49.3766 5.697C50.0179 6.3761 50.5178 7.29101 50.8951 8.43228C51.263 9.57355 51.4516 10.9789 51.4516 12.6484C51.4516 14.7612 51.1403 16.4495 50.5273 17.7228C49.9047 18.9961 49.1125 19.9771 48.1504 20.6562C47.1789 21.3353 46.1131 21.788 44.9529 22.0049C43.7834 22.2219 42.6515 22.3351 41.5574 22.3351C41.5574 19.2602 41.5669 16.1948 41.5857 13.1389ZM8.64915 0.0660892C6.87594 0.67917 5.30079 1.58464 3.94258 2.76364C2.57494 3.95208 1.49026 5.42347 0.679107 7.17782C0.405578 7.77204 0.17921 8.39455 2.07499e-06 9.04536V6.5187e-05H8.86609C8.83108 0.0150691 8.79342 0.0247691 8.75451 0.03479C8.72004 0.0436677 8.6846 0.0527971 8.64915 0.0660892ZM88.3514 6.57411C88.4928 6.1078 88.6216 5.68338 88.7363 5.30085V5.31029C89.0193 4.36708 89.3588 3.38616 89.755 2.37693C88.4817 1.35827 86.9631 0.575418 85.1805 6.5187e-05H91V26.4757C90.8208 26.0513 90.6227 25.6457 90.3869 25.2684C89.3966 23.665 88.1515 22.3068 86.6613 21.1844C85.171 20.0714 83.5676 19.1282 81.851 18.3548C80.1343 17.5908 78.5309 16.7796 77.0406 15.9496C75.5409 15.1196 74.3054 14.1764 73.315 13.1483C72.3246 12.1108 71.8342 10.7431 71.8342 9.15855C71.8342 7.57397 72.4755 6.19689 73.7489 5.00846C75.0222 3.82003 76.6728 3.22581 78.6912 3.22581C82.5961 3.22581 85.2559 5.12165 86.6613 8.89445H87.6516C87.9095 8.03102 88.1441 7.25757 88.3514 6.57411ZM2.07499e-06 40.2747C0.0943221 39.9258 0.17921 39.5956 0.254666 39.2655L0.245234 39.2844C0.55649 38.0111 0.820587 36.6245 1.03752 35.1343H2.29198C2.47119 36.1058 2.80131 37.0113 3.28234 37.8696C3.7728 38.7279 4.38589 39.4825 5.13101 40.1427C5.87614 40.8029 6.77218 41.3217 7.82857 41.6895C8.88495 42.0574 10.064 42.246 11.3844 42.246C14.016 42.246 15.959 41.5858 17.2134 40.2653C18.4679 38.9448 19.0904 37.3697 19.0904 35.521C19.0904 33.8515 18.5999 32.4933 17.6379 31.4369C16.6758 30.3806 15.4685 29.4468 14.016 28.6356C12.5634 27.8151 10.9883 27.0322 9.27166 26.2588C7.55504 25.4853 5.97989 24.5516 4.52737 23.4575C3.08427 22.3539 1.86754 21.0051 0.905475 19.4017C0.528194 18.7792 0.22637 18.0812 2.07499e-06 17.3172V40.2747ZM61.0439 78.8801C61.1288 78.8801 61.2326 78.8707 61.308 78.8141H61.2986C61.3175 78.5311 61.0534 77.8992 60.761 77.8992C60.5629 77.8992 60.4214 78.1633 60.2139 78.5594C60.5346 78.7669 60.8459 78.8801 61.0439 78.8801ZM59.707 78.2516C59.9308 77.8578 60.2505 77.2955 60.7704 77.2955L60.7893 77.2861C61.3741 77.2861 61.8834 77.9841 61.8834 78.7103C61.8834 79.1725 61.6476 79.4932 61.1949 79.4932C60.8742 79.4932 60.3931 79.3611 59.931 79.0405C59.6857 79.3328 59.3839 79.4177 58.95 79.4177H58.3275C58.0823 79.4177 57.9219 79.3611 57.7993 79.2763C57.5824 79.8799 56.8844 80.3892 55.8941 80.559L55.5545 80.0968L55.5922 80.0402C56.7147 79.8327 57.224 79.3706 57.3843 78.9178C57.2711 78.6254 57.0825 78.2387 56.9033 77.8803L57.356 77.3804H57.4221C57.5541 77.7577 57.6861 78.0973 57.7522 78.267C57.9219 78.7198 58.0351 78.7952 58.4596 78.7952H59.0821C59.3556 78.7952 59.4594 78.7009 59.6386 78.3708C59.6604 78.3335 59.6831 78.2935 59.707 78.2516ZM53.9511 79.4177C55.2338 79.4177 55.6866 79.0027 55.6866 78.4274L55.696 78.4368C55.696 78.0595 55.4979 77.6351 54.3472 76.8711L55.8658 76.0694L56.0733 75.3054L56.0261 75.2771L53.8945 76.4372L53.7341 77.1918L53.7624 77.2295C54.4981 77.7011 55.1867 78.1727 55.1867 78.5877C55.0263 78.6915 54.517 78.7952 53.9228 78.7952H50.4235C49.9991 78.7952 49.8859 78.7198 49.7161 78.267C49.6501 78.0973 49.518 77.7577 49.386 77.3804H49.32L48.8672 77.8803C49.0464 78.2387 49.2351 78.616 49.3483 78.9178C49.1879 79.3706 48.6786 79.8327 47.5562 80.0402L47.5184 80.0968L47.858 80.559C48.8484 80.3892 49.5463 79.8799 49.7633 79.2763C49.8859 79.3611 50.0462 79.4177 50.2915 79.4177H53.9511ZM48.754 76.3052L49.3483 76.7202L49.7161 76.1637L49.1219 75.7581L48.754 76.3052ZM46.1036 75.0979L46.0565 75.0696V75.0601L45.4717 75.2111V79.4366L45.5189 79.4649L46.1036 79.3423V75.0979ZM44.67 75.0979L44.6134 75.0696L44.6323 75.0601L44.0569 75.2111V78.201C44.0569 78.4274 44.038 78.5877 44.0097 78.6915C43.8683 78.7858 43.6513 78.7952 43.4533 78.7952H42.9439C42.5949 78.7952 42.3591 78.7198 42.1988 78.6443C42.2554 78.4462 42.2837 78.2104 42.2837 77.9275C42.2837 77.8318 42.2757 77.728 42.267 77.6162L42.2648 77.5879L42.2177 77.5691L41.614 77.7954C41.6329 77.9558 41.6423 78.1255 41.6423 78.2482C41.6423 78.484 41.6046 78.6349 41.5668 78.7198C41.4725 78.7764 41.3122 78.8046 41.1707 78.8046C41.0198 78.8046 40.8594 78.7764 40.718 78.7386C40.8099 78.5179 40.8929 78.2613 40.9932 77.9514L41.0009 77.9275L40.9726 77.8992L40.3407 78.0029C40.333 78.0299 40.3253 78.0567 40.3178 78.0833C40.2326 78.3824 40.1561 78.6512 40.0955 78.7292C40.0294 78.7764 39.9162 78.7952 39.8125 78.7952C39.5861 78.7952 39.3032 78.7386 39.1145 78.6726C39.1963 78.5164 39.2605 78.331 39.3349 78.1162C39.3549 78.0585 39.3755 77.9988 39.3975 77.9369L39.3692 77.9086L38.6901 78.0124C38.6146 78.3236 38.5392 78.5877 38.4732 78.7009C38.3411 78.7764 38.1147 78.8046 37.7092 78.8046H34.6626C34.2382 78.8046 34.125 78.7292 33.9552 78.2765C33.8892 78.1067 33.7571 77.7671 33.6251 77.3899H33.5591L33.1063 77.8897C33.2855 78.2482 33.4742 78.6254 33.5874 78.9273C33.427 79.38 32.9177 79.8422 31.7953 80.0497L31.7576 80.1063L32.0971 80.5684C33.0875 80.3987 33.7854 79.8893 34.0024 79.2857C34.125 79.3706 34.2853 79.4272 34.5306 79.4272H37.5771C38.1619 79.4272 38.5109 79.3423 38.7561 79.1442C38.9542 79.2857 39.3126 79.4272 39.737 79.4272C39.9917 79.4272 40.1803 79.3611 40.3313 79.2574C40.5388 79.3611 40.784 79.4272 41.0952 79.4272C41.4065 79.4272 41.68 79.3423 41.8781 79.1536C42.1422 79.3517 42.51 79.4272 42.7836 79.4272H43.2929C44.1418 79.4272 44.67 79.1725 44.67 78.1538V75.0979ZM41.3782 76.3995L40.8029 76.0033L40.4444 76.541L41.0198 76.9371L41.3782 76.3995ZM39.539 76.541L40.1143 76.9371H40.1238L40.4727 76.3995L39.8974 76.0033L39.539 76.541ZM39.8974 75.7298L40.4727 76.1354L40.8312 75.5883L40.2558 75.2016L39.8974 75.7298ZM30.1541 78.8046C31.069 78.8046 31.352 78.7858 31.5595 78.6915C31.6066 78.616 31.6444 78.4934 31.6444 78.3613C31.6444 78.1255 31.4463 77.8049 31.1539 77.8049C30.8049 77.8049 30.2673 78.2104 29.6354 78.8046H30.1541ZM23.8064 78.3991V78.3142V78.3047V77.503C23.2876 77.6539 22.9103 77.8897 22.8349 78.1255C22.9009 78.3331 23.2216 78.4274 23.4668 78.4274C23.5894 78.4274 23.7026 78.4179 23.8064 78.3991ZM31.2294 77.2106C31.7936 77.2106 32.1797 77.7451 32.182 78.2624C32.1804 78.6375 31.9925 78.9469 31.7859 79.1253C31.4557 79.3894 30.9936 79.4366 30.107 79.4366H24.9571C24.476 79.4366 24.1176 79.314 23.929 78.965C23.7498 79.0216 23.5894 79.0405 23.4102 79.0405C22.7311 79.0405 22.3161 78.7481 22.3161 78.2859C22.3161 77.7954 22.8349 77.2106 23.8064 76.8994V76.5976L24.3817 76.3712H24.4289V78.3142C24.4289 78.7386 24.6175 78.8141 25.1174 78.8141H28.928L28.9564 78.7882C29.049 78.7041 29.1339 78.6271 29.2109 78.55V75.2393L29.7863 75.0884L29.824 75.1167V77.9841C30.3994 77.4842 30.8427 77.2106 31.2294 77.2106ZM32.182 78.2624C32.182 78.2639 32.182 78.2655 32.182 78.267V78.2576C32.182 78.2592 32.182 78.2608 32.182 78.2624ZM22.6179 75.5317L23.1933 75.9279L23.5423 75.3903L22.9669 74.9941L22.6179 75.5317ZM23.8724 74.9941L23.514 75.5317L24.0893 75.9279L24.4478 75.3903L23.8724 74.9941ZM20.2599 75.1073L20.2128 75.079V75.0696L19.628 75.2205V79.446L19.6752 79.4743L20.2599 79.3517V75.1073ZM18.8263 75.1073L18.7697 75.079L18.7791 75.0601L18.2038 75.2111V78.201C18.2038 78.4274 18.1849 78.5877 18.1566 78.6915C18.0151 78.7858 17.7982 78.7952 17.6001 78.7952H17.0814C16.7135 78.7952 16.5909 78.7103 16.3457 78.1916C16.2513 78.0029 15.808 76.9937 15.6383 76.5976H15.5817L15.1195 77.1069C15.3189 77.463 15.6044 78.0234 15.785 78.3781C15.8436 78.4931 15.8912 78.5865 15.9212 78.6443C15.6948 78.7764 15.2798 78.8329 14.9309 78.8329C14.7894 78.8329 14.4687 78.8235 14.2612 78.7764L14.2329 78.8046L14.148 79.3989C14.3744 79.4555 14.7328 79.4743 14.8743 79.4743C15.4685 79.4743 15.9212 79.3517 16.1853 79.1159C16.3551 79.3706 16.5815 79.4366 16.9304 79.4366H17.4492C18.2981 79.4366 18.8263 79.1819 18.8263 78.1633V75.1073ZM15.0252 75.5317L15.6194 75.9467L15.9872 75.3903L15.393 74.9847L15.0252 75.5317ZM13.9224 75.2869L13.9216 75.2865L13.9405 75.2771L13.9224 75.2869ZM13.9688 75.3148L13.9224 75.2869L11.8089 76.4372L11.6485 77.1918L11.6768 77.2295C12.4125 77.7011 13.101 78.1727 13.101 78.5877C12.9407 78.6915 12.4314 78.7952 11.8372 78.7952H8.34732C7.89472 78.7952 7.46547 78.6668 6.99069 78.5248C6.86192 78.4863 6.7298 78.4467 6.59296 78.4085L6.41376 79.0027C7.13059 79.1914 7.38525 79.314 7.38525 79.4932C7.23434 79.7761 6.46092 79.9837 5.59317 79.9837C4.56508 79.9837 4.26326 79.6064 4.26326 79.031C4.26326 78.8707 4.28212 78.7103 4.32928 78.4651L4.27269 78.4368L3.75393 78.616C3.69734 78.8046 3.65018 79.0687 3.65018 79.3234C3.65018 80.0591 4.23496 80.6156 5.46112 80.6156C6.8382 80.6156 7.83799 80.1912 7.93231 79.4366H11.856C13.1388 79.4366 13.5915 79.0216 13.5915 78.4462C13.5915 78.0689 13.3934 77.6445 12.2427 76.8805L13.7613 76.0788L13.9688 75.3148ZM6.3666 81.4928L5.79124 81.0966L5.43283 81.6343L6.00818 82.0304L6.3666 81.4928ZM4.87337 81.1011L4.87634 81.0966H4.86691L4.87337 81.1011ZM4.87337 81.1011L4.51792 81.6343L5.09328 82.0304L5.44226 81.4928L4.87337 81.1011ZM61.2797 85.6617V83.0113L61.2892 82.9925H61.8928V86.5672H61.2043L59.8272 84.5393C59.809 84.5127 59.7903 84.4858 59.7715 84.4586C59.6634 84.303 59.5477 84.1364 59.4594 83.9357V86.5766H58.8463V83.0019H59.516L60.9591 85.1335C60.987 85.1765 61.0145 85.2176 61.0412 85.2576C61.1318 85.393 61.2142 85.5161 61.2797 85.6617ZM55.413 84.7845C55.413 85.5863 55.7526 86.1333 56.4789 86.1333C57.2146 86.1333 57.573 85.6146 57.573 84.8128C57.573 84.0111 57.2617 83.4641 56.5166 83.4641C55.7715 83.4641 55.413 83.9828 55.413 84.7845ZM58.2238 84.8128C58.2238 86.105 57.4032 86.6615 56.4789 86.6615C55.347 86.6615 54.7622 85.8881 54.7622 84.794C54.7622 83.5018 55.5922 82.9453 56.5166 82.9453C57.6484 82.9453 58.2238 83.7187 58.2238 84.8128ZM54.1491 86.5861H53.5172V83.0113H54.1491V86.5861ZM50.0462 83.0113H53.055V83.549H51.876V86.5861H51.2441V83.549H50.0462V83.0113ZM48.5937 83.5961L48.0561 85.1335H49.1313L48.5937 83.5961ZM48.2164 83.0113H48.9898L50.3103 86.5483V86.5861H49.6501L49.3105 85.6334H47.8769L47.5467 86.5861H46.9054V86.5483L48.2164 83.0113ZM44.1512 83.0113H47.16V83.549H45.981V86.5861H45.3491V83.549H44.1512V83.0113ZM43.8211 85.6051C43.8211 86.3125 43.2552 86.6615 42.4535 86.6615L42.4629 86.6709C41.897 86.6709 41.4537 86.5106 41.1235 86.2559L41.4159 85.8126C41.7649 86.0579 42.1422 86.1428 42.4346 86.1428C42.9062 86.1428 43.1797 85.9824 43.1797 85.6429C43.1797 85.3505 43.0099 85.2278 42.4252 85.0203L42.3214 84.9826C41.7272 84.7562 41.2745 84.5487 41.2745 83.9168C41.2745 83.2471 41.9158 82.9547 42.5289 82.9547C42.9345 82.9547 43.3684 83.0679 43.7551 83.332L43.4721 83.7753C43.1514 83.5772 42.8779 83.4735 42.5195 83.4735C42.1611 83.4735 41.9064 83.615 41.9064 83.8979C41.9064 84.1149 42.0573 84.2469 42.6044 84.445L42.7176 84.4827C43.2457 84.6714 43.8211 84.8977 43.8211 85.6051ZM37.7374 85.0298V86.0767L37.7469 86.0673H39.4541V86.5955H37.1244V83.0208H39.4258V83.5395H37.7469V84.5204H39.1994L39.124 85.0298H37.7374ZM36.6528 86.322C36.2849 86.5295 35.9359 86.6709 35.4643 86.6709V86.6615C34.2759 86.6615 33.7854 85.907 33.7854 84.8223C33.7854 83.4263 34.5966 82.9453 35.4549 82.9453C35.9265 82.9453 36.2849 83.0679 36.6339 83.2754L36.3792 83.747C36.1717 83.615 35.8793 83.4829 35.4926 83.4829C34.7569 83.4829 34.4551 84.0017 34.4551 84.794C34.4551 85.6334 34.823 86.1333 35.5209 86.1333C35.9076 86.1333 36.1623 86.0107 36.4075 85.8692L36.6528 86.322ZM33.1535 86.5861H32.5216V83.0113H33.1535V86.5861ZM30.3616 83.0113V86.039H32.0594V86.5861H29.7297V83.0113H30.3616ZM26.2964 84.7845C26.2964 85.5863 26.636 86.1333 27.3622 86.1333C28.0979 86.1333 28.4564 85.6146 28.4564 84.8128C28.4564 84.0111 28.1451 83.4641 27.4 83.4641C26.6548 83.4641 26.2964 83.9828 26.2964 84.7845ZM29.1072 84.8128C29.1072 86.105 28.2866 86.6615 27.3622 86.6615C26.2304 86.6615 25.6456 85.8881 25.6456 84.794C25.6456 83.5018 26.4756 82.9453 27.4 82.9453C28.5318 82.9453 29.1072 83.7187 29.1072 84.8128ZM23.3253 84.8128H23.8252C24.344 84.8128 24.6175 84.5959 24.6175 84.1526C24.6175 83.747 24.3723 83.5395 23.9007 83.5395H23.3253V84.8128ZM22.6934 83.0208H23.9101C24.825 83.0208 25.2683 83.4735 25.2683 84.1337C25.2683 84.794 24.8156 85.3316 23.8818 85.3316H23.3253V86.5955H22.6934V83.0208ZM17.8925 83.0208H20.9013V83.5584H19.7223V86.5955H19.0904V83.5584H17.8925V83.0208ZM16.1947 83.5395H15.6477V84.7468H16.1193C16.6192 84.7468 16.8927 84.5393 16.8927 84.1243C16.8927 83.7376 16.6475 83.5395 16.1947 83.5395ZM17.5435 84.1054C17.5435 84.5959 17.2794 85.0109 16.7324 85.1713L17.751 86.5578V86.5955H17.0436L16.0816 85.2467H15.6477V86.5955H15.0157V83.0208H16.1947C17.1002 83.0208 17.5435 83.4829 17.5435 84.1054ZM12.837 83.6055L12.2993 85.143H13.3746L12.837 83.6055ZM12.4597 83.0208H13.2331L14.5536 86.5578V86.5955H13.8933L13.5538 85.6429H12.1201L11.79 86.5955H11.1486V86.5578L12.4597 83.0208ZM9.18677 84.5959L10.0073 83.0208H10.677V86.5955H10.0545V84.0866C10.0073 84.2186 9.94133 84.379 9.82814 84.5959L9.07358 86.0767H8.53596L7.79083 84.5959C7.66821 84.379 7.59276 84.2186 7.5456 84.0771V86.5955H6.94195V83.0208H7.62105L8.43221 84.5959C8.58312 84.9072 8.73403 85.2184 8.80949 85.4542C8.88494 85.2184 9.03585 84.8977 9.18677 84.5959ZM6.3383 85.6146C6.3383 86.322 5.77238 86.6709 4.97066 86.6709L4.96123 86.6804C4.39531 86.6804 3.952 86.52 3.62188 86.2654L3.91427 85.8221C4.26326 86.0673 4.64054 86.1522 4.93293 86.1522C5.41396 86.1522 5.68749 85.9918 5.68749 85.6523C5.68749 85.3599 5.51771 85.2373 4.93293 85.0298L4.82918 84.992C4.24439 84.7657 3.78223 84.5582 3.78223 83.9262C3.78223 83.2566 4.41417 82.9642 5.03668 82.9642C5.44226 82.9642 5.8667 83.0773 6.26284 83.3414L5.97988 83.7848C5.6592 83.5867 5.38567 83.4829 5.02725 83.4829C4.66883 83.4829 4.41417 83.6244 4.41417 83.9074C4.41417 84.1243 4.56508 84.2563 5.11214 84.4544L5.22532 84.4921C5.76295 84.6808 6.3383 84.9072 6.3383 85.6146ZM71.9379 81.4456H80.8983C81.502 81.4456 81.6906 81.0495 81.6906 81.0495H71.1456C71.1456 81.0495 71.3343 81.4456 71.9379 81.4456ZM72.7868 82.2851H80.0589C80.6625 82.2851 80.8512 81.8889 80.8512 81.8889H71.9945C71.9945 81.8889 72.1831 82.2851 72.7868 82.2851ZM74.1639 83.1245H78.6818C79.276 83.1245 79.4741 82.7284 79.4741 82.7284H73.3716C73.3716 82.7284 73.5602 83.1245 74.1639 83.1245ZM77.6631 83.5678H75.1825C75.1825 83.5678 75.3712 83.964 75.9748 83.964H76.8709C77.4745 83.964 77.6631 83.5678 77.6631 83.5678ZM79.3464 76.8372C76.6145 75.7775 73.48 75.9305 70.8155 77.3899C71.306 73.353 74.2016 70.0423 77.9838 68.9482C76.9189 71.5398 77.3606 74.6304 79.3464 76.8372ZM79.9929 77.9935L80.2192 77.6822C78.795 76.9277 77.2576 76.5598 75.7296 76.5504V77.9935H79.9929ZM75.0976 76.5693C73.4848 76.6636 71.9191 77.1446 70.5514 77.9935H75.0976V76.5693ZM70.3439 78.267V77.9935C70.5891 73.3058 74.0695 69.2878 78.6912 68.3634C77.0689 71.2496 77.6631 75.1073 80.4456 77.3615H83.096V78.1255H82.6055C82.1811 78.9273 81.917 79.4083 81.3794 80.21H82.266C82.266 80.21 82.0773 80.6062 81.4737 80.6062H71.3343C70.7306 80.6062 70.542 80.21 70.542 80.21H71.5135C70.8344 79.2197 70.4288 78.4368 70.3439 78.267ZM85.6426 79.38C85.2653 79.7667 85.0956 80.1346 85.0956 80.493C85.454 80.4835 85.8218 80.3043 86.1897 79.9176C86.5009 79.5969 86.6896 79.2008 86.7367 78.8046C86.3406 78.8612 85.9539 79.0593 85.6426 79.38ZM85.3219 81.9172C85.6898 81.672 85.9539 81.323 86.0859 80.9457H86.0765C85.6804 80.9268 85.2559 81.04 84.8881 81.2853C84.4448 81.5777 84.1995 81.9078 84.1241 82.2568C84.4825 82.3134 84.8786 82.219 85.3219 81.9172ZM82.7942 83.7753C83.1243 83.9168 83.5299 83.8979 84.0297 83.6999C84.4448 83.5301 84.7749 83.2471 84.9824 82.9076C84.5957 82.8038 84.1618 82.8227 83.7468 82.983C83.2469 83.1811 82.9451 83.4452 82.7942 83.7753ZM81.1813 84.9826C81.4737 85.1901 81.8793 85.2561 82.4074 85.1713C82.8508 85.0958 83.2375 84.8883 83.511 84.5959C83.1526 84.4073 82.7281 84.3318 82.2848 84.4073C81.7566 84.5016 81.3982 84.6902 81.1813 84.9826ZM79.3515 85.8221C79.5967 86.0862 79.974 86.2371 80.5116 86.2654C80.9643 86.2842 81.3794 86.1616 81.7095 85.9352C81.3982 85.6806 80.9926 85.5108 80.5493 85.4919C80.0117 85.4731 79.625 85.5863 79.3515 85.8221ZM77.3896 86.2654C77.5688 86.5672 77.9084 86.7936 78.4271 86.935C78.861 87.0482 79.2949 87.0199 79.6627 86.869C79.4175 86.5578 79.0591 86.3125 78.6252 86.1993C78.1065 86.0579 77.7009 86.0862 77.3896 86.2654ZM78.927 84.1243C78.5309 84.1809 78.1348 84.3695 77.8235 84.6902C77.4462 85.0675 77.267 85.4353 77.267 85.7938C77.6254 85.7843 77.9933 85.6051 78.3705 85.2278C78.6818 84.9166 78.8704 84.5204 78.927 84.1243ZM80.4079 83.4169C80.0306 83.5584 79.691 83.8225 79.4458 84.1998C79.1628 84.6525 79.0685 85.0486 79.1345 85.3976C79.4835 85.3127 79.8042 85.0675 80.0966 84.6148C80.3324 84.2375 80.4362 83.813 80.4079 83.4169ZM81.7095 82.4077C81.3699 82.6246 81.0964 82.9642 80.9361 83.3792C80.7474 83.8791 80.738 84.2846 80.8795 84.6148C81.2001 84.4544 81.4642 84.1432 81.6529 83.6433C81.8132 83.2283 81.8227 82.7944 81.7095 82.4077ZM82.7659 81.1532C82.4829 81.4362 82.2848 81.8229 82.2188 82.2662C82.1433 82.8038 82.2188 83.2 82.4263 83.4924C82.7093 83.266 82.8979 82.9076 82.9734 82.3794C83.0394 81.9361 82.9545 81.5022 82.7659 81.1532ZM84.0014 80.8514C83.9732 80.4081 83.8034 80.0025 83.5393 79.7007C83.3223 80.0308 83.2092 80.4552 83.2375 80.8986C83.2752 81.4362 83.4355 81.804 83.6996 82.0493C83.926 81.7757 84.0392 81.389 84.0014 80.8514ZM84.4353 73.7302C84.0769 73.4567 83.6619 73.3152 83.2658 73.3152V73.3247C83.3695 73.7019 83.6053 74.0698 83.9637 74.3433C84.3882 74.6734 84.7749 74.7961 85.1333 74.7583C85.0861 74.3999 84.8598 74.0603 84.4353 73.7302ZM83.5959 72.1079C83.1903 71.9193 82.7659 71.8721 82.3697 71.9476H82.3791C82.5584 72.2966 82.8696 72.6078 83.2752 72.7965C83.7562 73.0323 84.1618 73.07 84.5014 72.9568C84.3693 72.6267 84.0769 72.3343 83.5959 72.1079ZM82.4546 70.6837C82.0207 70.5799 81.5869 70.6271 81.219 70.7874C81.4737 71.0893 81.8415 71.3251 82.2754 71.4288C82.7942 71.5514 83.1997 71.5137 83.511 71.3251C83.3223 71.0232 82.9734 70.8063 82.4546 70.6837ZM79.8419 69.9008C80.1532 70.1461 80.5682 70.3064 81.0115 70.3064C81.5491 70.3158 81.9358 70.1932 82.1999 69.948C81.9453 69.6933 81.568 69.5518 81.0304 69.5424C80.5776 69.533 80.1721 69.665 79.8419 69.9008ZM79.2477 67.8918C79.3986 68.2597 79.6722 68.5992 80.0589 68.8256V68.835C80.521 69.118 80.9172 69.1934 81.2662 69.118C81.1719 68.769 80.9172 68.4483 80.455 68.1748C80.0683 67.939 79.6439 67.8541 79.2477 67.8918ZM82.2094 68.3351C81.9924 67.939 81.6717 67.656 81.3039 67.4862C81.2567 67.8824 81.3228 68.3068 81.5397 68.703C81.7944 69.1746 82.0962 69.4481 82.4452 69.5518C82.5395 69.2029 82.464 68.8067 82.2094 68.3351ZM83.8694 69.7594C83.7374 69.3349 83.4827 68.9765 83.162 68.7407V68.7501C83.0205 69.118 83.0017 69.5613 83.1337 69.9857C83.2846 70.495 83.5299 70.8252 83.8411 71.0044C84.0015 70.6837 84.0203 70.2687 83.8694 69.7594ZM85.1899 71.5137C85.1616 71.0704 84.9824 70.6743 84.7183 70.3724C84.5014 70.712 84.3882 71.1364 84.4259 71.5797C84.4636 72.1079 84.624 72.4852 84.8975 72.721C85.1333 72.438 85.237 72.0513 85.1899 71.5137ZM83.8505 74.8998C83.8788 75.3054 84.0298 75.7109 84.3221 76.0505C84.6711 76.4561 85.0201 76.6636 85.3785 76.7013C85.3974 76.3429 85.2559 75.9562 84.9069 75.5506C84.6145 75.2111 84.2373 74.9941 83.8505 74.8998ZM84.6357 80.4322C84.3279 80.2521 84.0946 79.9231 83.9449 79.4083C83.8222 78.9744 83.8505 78.5406 83.992 78.1727C84.3127 78.4179 84.5579 78.7669 84.6806 79.2008C84.8308 79.7172 84.8034 80.1215 84.6357 80.4322ZM84.0863 76.5315C84.0298 76.9277 84.0958 77.3521 84.3033 77.7483V77.7577C84.5579 78.2293 84.8598 78.5028 85.1993 78.616C85.2936 78.267 85.237 77.8615 84.9824 77.3899C84.7654 76.9937 84.4542 76.7013 84.0863 76.5315ZM85.8879 72.2966C85.6049 72.5795 85.4068 72.9662 85.3502 73.4095V73.419C85.2842 73.9472 85.3597 74.3433 85.5766 74.6357C85.8596 74.4093 86.0388 74.0415 86.1142 73.5133C86.1708 73.07 86.0859 72.6455 85.8879 72.2966ZM86.5953 75.6544C86.7462 75.2393 86.7462 74.8055 86.633 74.4188C86.2934 74.6451 86.0199 74.9753 85.869 75.3997C85.6898 75.8996 85.6804 76.3052 85.8313 76.6353C86.1614 76.4749 86.416 76.1637 86.5953 75.6544ZM86.6141 77.852C86.8594 77.4653 86.9537 77.0409 86.9159 76.6447C86.5387 76.7956 86.1991 77.0692 85.9633 77.4464C85.6804 77.9086 85.586 78.3047 85.6615 78.6537C86.0105 78.5594 86.3312 78.3048 86.6141 77.852ZM73.8903 84.1998C73.9469 84.5959 74.1356 84.9826 74.4468 85.3033C74.8241 85.6806 75.192 85.8692 75.5504 85.8692C75.5504 85.5108 75.3712 85.143 74.9939 84.7657C74.6826 84.445 74.2865 84.2563 73.8903 84.1998ZM73.1452 86.935C73.5131 87.086 73.9469 87.1142 74.3808 87.0011C74.8901 86.869 75.2297 86.6426 75.4183 86.3314C75.1071 86.1616 74.7015 86.1239 74.1827 86.2654C73.7489 86.3785 73.3904 86.6238 73.1452 86.935ZM71.0985 86.0013C71.4286 86.2276 71.853 86.3503 72.2963 86.3314C72.834 86.3031 73.2112 86.1522 73.4565 85.8881C73.1829 85.6523 72.7962 85.5297 72.2586 85.558C71.8153 85.5863 71.4097 85.7466 71.0985 86.0013ZM69.297 84.6619C69.5799 84.9543 69.9572 85.1618 70.4005 85.2373C70.9287 85.3222 71.3343 85.2561 71.6267 85.0486C71.4097 84.7562 71.0513 84.5582 70.5231 84.4733C70.0798 84.4073 69.6554 84.4827 69.297 84.6619ZM67.8256 82.9736C68.0331 83.3131 68.3632 83.5961 68.7782 83.7659C69.2781 83.964 69.6837 83.9828 70.0138 83.8413C69.8723 83.5112 69.5611 83.2471 69.0612 83.0491C68.6461 82.8887 68.2123 82.8698 67.8256 82.9736ZM66.7314 81.0212C66.8635 81.3985 67.1276 81.7474 67.4954 81.9927H67.486C67.9388 82.2945 68.3255 82.3982 68.6839 82.3322C68.6084 81.9832 68.3632 81.6626 67.9199 81.3607C67.552 81.1061 67.1276 81.0023 66.7314 81.0212ZM66.0618 78.8707C66.1184 79.2668 66.2976 79.663 66.6088 79.9837C66.9767 80.3609 67.3445 80.5496 67.7029 80.559C67.7029 80.2006 67.5332 79.8327 67.1559 79.446C66.8446 79.1253 66.4579 78.9367 66.0618 78.8707ZM66.8258 77.437C66.59 77.0503 66.2504 76.7768 65.8731 76.6353C65.8448 77.0409 65.9392 77.4653 66.175 77.8426C66.4579 78.3047 66.7786 78.5594 67.1276 78.6443C67.203 78.2859 67.1087 77.8897 66.8258 77.437ZM66.9295 75.3903C66.7786 74.9658 66.4957 74.6263 66.1655 74.4093C66.0523 74.7866 66.0523 75.2205 66.2033 75.6449C66.3919 76.1543 66.6466 76.4655 66.9672 76.6259C67.1182 76.3052 67.1087 75.8902 66.9295 75.3903ZM67.4577 73.4095C67.4011 72.9662 67.203 72.5795 66.9201 72.2966V72.2871C66.722 72.6361 66.6371 73.0606 66.6937 73.5039C66.7692 74.0415 66.9484 74.3999 67.2313 74.6263C67.4483 74.3433 67.5332 73.9377 67.4577 73.4095ZM68.0897 70.3819C67.8256 70.6837 67.6558 71.0798 67.6181 71.5231C67.5803 72.0608 67.6841 72.4569 67.9104 72.7304C68.1745 72.4946 68.3349 72.1268 68.382 71.5892C68.4103 71.1459 68.3066 70.7214 68.0897 70.3819ZM70.4288 71.9853C70.0421 71.9099 69.6082 71.957 69.2026 72.1457C68.7216 72.372 68.4292 72.655 68.3066 72.9945C68.6461 73.1077 69.0517 73.0606 69.5328 72.8342C69.9289 72.6455 70.2402 72.3437 70.4288 71.9853ZM69.6554 68.7596C69.3347 68.9954 69.08 69.3538 68.948 69.7782V69.7688C68.7971 70.2875 68.8065 70.6931 68.9763 71.0138C69.2875 70.8346 69.5328 70.5045 69.6837 69.9952C69.8157 69.5707 69.7969 69.1368 69.6554 68.7596ZM71.5984 70.8157C71.2305 70.6554 70.7966 70.6082 70.3628 70.712C69.844 70.8346 69.5045 71.0515 69.3064 71.3534C69.6176 71.542 70.0232 71.5797 70.542 71.4571C70.9759 71.3534 71.3437 71.127 71.5984 70.8157ZM71.5135 67.4957C71.1456 67.6654 70.8249 67.9484 70.608 68.3446C70.3439 68.8162 70.2779 69.2123 70.3722 69.5613C70.7212 69.4575 71.023 69.184 71.2777 68.7124C71.4946 68.3257 71.5701 67.8918 71.5135 67.4957ZM73.5697 67.9107C73.1735 67.873 72.7491 67.9673 72.3624 68.1936V68.1842C71.9002 68.4672 71.6455 68.7784 71.5512 69.1274C71.9002 69.2029 72.2963 69.118 72.7585 68.8444C73.1452 68.6181 73.4187 68.2785 73.5697 67.9107ZM71.8059 70.3253C72.2492 70.3158 72.6642 70.1649 72.9754 69.9197C72.6453 69.6839 72.2303 69.5613 71.787 69.5613C71.2494 69.5707 70.8721 69.7122 70.6174 69.9669C70.8815 70.2121 71.2682 70.3347 71.8059 70.3253ZM67.6652 74.7961C68.0236 74.8338 68.4103 74.7112 68.8348 74.381V74.3716C69.1838 74.1075 69.429 73.7397 69.5328 73.3529C69.1272 73.3624 68.7216 73.4944 68.3632 73.768C67.9388 74.0981 67.7218 74.4376 67.6652 74.7961ZM68.8065 78.1538C68.4952 78.3991 68.2406 78.7481 68.118 79.1819C67.9765 79.6913 67.9953 80.0968 68.1651 80.4175C68.4764 80.2383 68.7027 79.9082 68.8537 79.3894C68.9763 78.965 68.948 78.5311 68.8065 78.1538ZM67.901 75.5317C67.552 75.9468 67.4106 76.324 67.4294 76.6824C67.7878 76.6447 68.1368 76.4372 68.4858 76.0316C68.7782 75.6827 68.9291 75.2771 68.9574 74.8809C68.5613 74.9753 68.1934 75.1922 67.901 75.5317ZM68.7122 76.5127C68.3443 76.6824 68.0236 76.9748 67.8161 77.371V77.3615C67.5615 77.8426 67.5049 78.2387 67.5992 78.5877C67.9482 78.4745 68.2406 78.201 68.4952 77.7294C68.7122 77.3427 68.7688 76.9088 68.7122 76.5127ZM69.5611 80.9269C69.5988 80.4836 69.4762 80.0685 69.2592 79.729C68.9951 80.0308 68.8254 80.4364 68.7971 80.8797C68.7593 81.4079 68.8631 81.804 69.0989 82.0776C69.363 81.8323 69.5233 81.4645 69.5611 80.9269ZM70.5797 82.2945C70.5231 81.8512 70.3156 81.4645 70.0327 81.1815C69.844 81.5399 69.7591 81.9644 69.8251 82.4077C69.9006 82.9359 70.0892 83.3037 70.3722 83.5207C70.5797 83.2283 70.6552 82.8227 70.5797 82.2945ZM71.8625 83.4075C71.7021 82.983 71.4286 82.6529 71.089 82.436C70.9759 82.8133 70.9853 83.2566 71.1456 83.6716C71.3343 84.1715 71.5889 84.4921 71.9191 84.6431C72.0605 84.3129 72.0511 83.9074 71.8625 83.4075ZM73.3527 84.2281C73.1075 83.8508 72.7679 83.5867 72.3907 83.4452C72.3624 83.8413 72.4567 84.2658 72.7019 84.6431C72.9943 85.0958 73.315 85.341 73.664 85.4259C73.7394 85.0769 73.6451 84.6808 73.3527 84.2281ZM87.1054 78.4179C87.1114 78.4179 87.1174 78.4179 87.1235 78.4179L87.1046 78.4085C87.1049 78.4116 87.1051 78.4148 87.1054 78.4179ZM86.6141 78.4462C86.7779 78.4189 86.9416 78.418 87.1054 78.4179C87.1589 79.0471 86.9324 79.7127 86.4443 80.2195C86.3029 80.3609 86.1614 80.4835 86.0293 80.5779C86.1991 80.5873 86.3689 80.6062 86.5292 80.6533C86.4538 81.2853 86.0954 81.8889 85.5011 82.2851C85.3314 82.3982 85.171 82.4831 85.0201 82.5492C85.1805 82.5869 85.3408 82.6529 85.4917 82.7284C85.2842 83.3226 84.8032 83.8413 84.1429 84.1054C83.9543 84.1715 83.7751 84.2281 83.6147 84.2563C83.7657 84.3318 83.9071 84.4261 84.0392 84.5299C83.7091 85.0675 83.1337 85.4731 82.4357 85.5863C82.2377 85.624 82.0585 85.624 81.8887 85.624C82.0207 85.7277 82.1433 85.8504 82.2471 85.9824C81.8132 86.4351 81.1624 86.7181 80.455 86.6804C80.2475 86.6709 80.0683 86.6426 79.908 86.6049C80.0117 86.737 80.106 86.8784 80.1815 87.0294C79.6533 87.3783 78.9648 87.5104 78.2762 87.3312C77.9461 87.2463 77.682 87.1237 77.4745 86.9822C76.786 86.52 75.9088 86.5295 75.2391 86.9822C75.0316 87.1237 74.7675 87.2463 74.4374 87.3312C73.7489 87.5198 73.0509 87.3878 72.5321 87.0294C72.6076 86.8784 72.7019 86.737 72.8057 86.6049C72.6359 86.6426 72.4567 86.6804 72.2586 86.6804C71.5512 86.7181 70.9004 86.4351 70.4665 85.9824C70.5703 85.8504 70.6929 85.7277 70.8249 85.624C70.6552 85.6334 70.476 85.624 70.2779 85.5863C69.5799 85.4731 69.0046 85.0675 68.6744 84.5299C68.8065 84.4261 68.948 84.3318 69.0989 84.2563C68.9291 84.2281 68.7593 84.1809 68.5707 84.1054C67.9104 83.8413 67.4294 83.3226 67.2219 82.7284C67.3728 82.6529 67.5237 82.5869 67.6935 82.5492C67.5426 82.4831 67.3823 82.3982 67.2125 82.2851C66.6183 81.8889 66.2598 81.2758 66.1844 80.6533C66.3447 80.6062 66.5145 80.5779 66.6843 80.5779C66.5522 80.4835 66.4108 80.3609 66.2693 80.2195C65.7788 79.7101 65.5524 79.0404 65.609 78.4085C65.7788 78.3991 65.9486 78.4085 66.1184 78.4368C66.0052 78.3142 65.892 78.1727 65.7882 78.0029C65.411 77.3993 65.3355 76.7013 65.5242 76.0977C65.6939 76.126 65.8543 76.1731 66.0146 76.2391C65.9297 76.0882 65.8543 75.9279 65.7882 75.7393C65.5524 75.0696 65.6185 74.3622 65.9297 73.8151C66.0901 73.8717 66.241 73.9566 66.3825 74.0509C66.3259 73.8906 66.2881 73.7114 66.2598 73.5133C66.1655 72.8059 66.3919 72.1362 66.8069 71.6646C66.9484 71.7589 67.0804 71.8721 67.1936 71.9947C67.1842 71.8344 67.1748 71.6458 67.1936 71.4477C67.2408 70.7403 67.5992 70.1366 68.1085 69.7594C68.2311 69.882 68.3349 70.014 68.4198 70.1649C68.4386 69.9952 68.4764 69.8159 68.533 69.6273C68.7405 68.9482 69.2121 68.4294 69.7874 68.1653C69.8723 68.3068 69.9478 68.4577 70.0044 68.6181C70.0515 68.4577 70.127 68.2974 70.2213 68.1182C70.5703 67.4957 71.1456 67.0901 71.7587 66.958C71.8813 67.2787 71.9191 67.6277 71.8813 67.9861C71.9567 67.939 72.0415 67.8825 72.1264 67.8259L72.1266 67.8258C72.7396 67.4579 73.4376 67.3919 74.0413 67.59C73.9281 68.2125 73.5414 68.7973 72.9377 69.1651C72.8434 69.2217 72.7585 69.2689 72.6736 69.3066C73.0037 69.4387 73.2961 69.6367 73.5225 69.8914C73.1829 70.297 72.683 70.5799 72.1171 70.6743C71.8719 71.1364 71.4475 71.5137 70.9193 71.7212C70.7778 72.2211 70.4382 72.6833 69.9666 72.9945C69.9289 73.5227 69.7025 74.0415 69.3064 74.4471C69.3818 74.9658 69.2687 75.5223 68.9668 76.0033C69.1555 76.4938 69.1649 77.0597 68.9668 77.5974C69.2498 78.0406 69.3724 78.5877 69.297 79.1536C69.6648 79.5215 69.91 80.0402 69.9478 80.6062C70.3911 80.8891 70.7306 81.3419 70.891 81.8889C71.3814 82.0776 71.8059 82.4454 72.0794 82.9453C72.5982 83.0208 73.0981 83.2943 73.4659 83.7282C74.0884 83.6904 74.7392 83.9262 75.2391 84.4261C75.5598 84.7562 75.7485 85.0675 75.8428 85.3599C75.9937 85.8881 76.7388 85.8881 76.8992 85.3599C76.9935 85.0675 77.1821 84.7562 77.5028 84.4356C77.9933 83.9357 78.6535 83.6999 79.276 83.7376C79.6439 83.3037 80.1438 83.0396 80.6625 82.9547C80.9361 82.4548 81.3605 82.087 81.851 81.8983C82.0113 81.3513 82.3509 80.8986 82.7942 80.6156C82.8319 80.0497 83.0771 79.5309 83.445 79.1631C83.3695 78.5971 83.4921 78.0501 83.7751 77.6068C83.5864 77.0692 83.5959 76.5032 83.7751 76.0128C83.4733 75.5317 83.3601 74.9753 83.4355 74.4565C83.0394 74.0415 82.813 73.5227 82.7753 73.004C82.3037 72.6927 81.9641 72.2305 81.8227 71.7306C81.2945 71.5231 80.87 71.1459 80.6248 70.6837C80.0589 70.5988 79.559 70.3064 79.2194 69.9008C79.4458 69.6462 79.7382 69.4481 80.0683 69.316C79.9834 69.2783 79.8891 69.2312 79.8042 69.1746C79.1911 68.8067 78.8044 68.2219 78.7007 67.5994C79.3043 67.4014 80.0117 67.4674 80.6154 67.8352C80.7003 67.8824 80.7851 67.939 80.8606 67.9956C80.8229 67.6371 80.87 67.2882 80.9832 66.9675C81.6057 67.0995 82.1811 67.5051 82.5206 68.1276C82.6149 68.3068 82.6904 68.4672 82.7376 68.6275C82.7942 68.4672 82.8602 68.3163 82.9545 68.1748C83.5299 68.4389 84.0014 68.9576 84.209 69.6367C84.275 69.8254 84.3033 70.0046 84.3221 70.1744C84.407 70.0235 84.5108 69.8914 84.6334 69.7688C85.1333 70.1366 85.4917 70.7497 85.5483 71.4571C85.5672 71.6552 85.5672 71.8344 85.5483 72.0042C85.6615 71.8721 85.7935 71.7684 85.935 71.674C86.3595 72.1457 86.5764 72.8153 86.4821 73.5227C86.4538 73.7302 86.416 73.9 86.3595 74.0603C86.5009 73.966 86.6518 73.8811 86.8122 73.8245C87.1235 74.381 87.1895 75.079 86.9537 75.7487C86.8782 75.9373 86.8028 76.1071 86.7179 76.2486C86.8782 76.1825 87.0386 76.1354 87.2083 76.1071C87.397 76.7107 87.3215 77.4087 86.9442 78.0124C86.8405 78.1821 86.7273 78.3236 86.6141 78.4462Z" fill="#E30613"/>
</g>
<defs>
<clipPath id="clip0_0_1348">
<rect width="91" height="91" fill="white"/>
</clipPath>
</defs>
</svg>
